<svg width="59" height="48" viewBox="0 0 59 48" fill="none" xmlns="http://www.w3.org/2000/svg">
<path d="M53.2292 31.1856C53.2292 31.4909 53.2292 31.7391 53.2292 31.9872C53.2292 35.5943 53.2292 39.1824 53.2292 42.7895C53.2292 43.343 53.1911 43.8965 53.0766 44.4118C52.2559 47.809 48.1334 49.1259 45.4615 46.8547C45.2897 46.702 45.1179 46.5303 44.908 46.3585C44.24 47.0456 43.4957 47.5609 42.5796 47.8281C39.7358 48.6297 36.7967 46.5303 36.6631 43.572C36.644 43.2666 36.644 42.9613 36.644 42.6368C36.644 36.9303 36.644 31.2428 36.644 25.5363C36.644 25.2882 36.644 25.021 36.644 24.6584C35.8042 25.0782 35.079 25.4599 34.3156 25.8035C33.8766 25.9943 33.4377 26.1852 32.9796 26.2806C31.4528 26.6051 30.1168 26.2043 28.8762 25.2882C27.2349 24.0476 25.5935 22.8262 23.9522 21.6047C23.7613 21.4711 23.5705 21.3184 23.3606 21.1657C23.0934 21.1657 22.8071 21.1657 22.5208 21.1657C15.5737 21.1657 8.64569 21.1466 1.6986 21.1848C0.400794 21.1848 0 20.7458 0 19.5053C0.0190854 13.5888 0 7.65325 0 1.71769C0 1.54592 0 1.37415 0 1.22147C0.0381708 0.496221 0.419879 0.0954271 1.14513 0.0190854C1.31689 0 1.48866 0 1.66043 0C10.6115 0 19.5435 0 28.4945 0C28.6663 0 28.8381 0 28.9908 0C29.716 0.0572563 30.1168 0.45805 30.1931 1.1833C30.2122 1.39324 30.1931 1.60318 30.1931 1.8322C30.1931 6.48904 30.1931 11.1268 30.1931 15.7836C30.1931 16.0508 30.1931 16.2989 30.1931 16.6234C30.613 16.9479 31.052 17.2723 31.51 17.6349C31.6818 17.5013 31.8154 17.3868 31.949 17.2723C32.5597 16.6997 33.1514 16.1272 33.7621 15.5546C34.8309 14.5622 36.1287 14.0278 37.5792 14.0278C42.1597 14.0087 46.7402 14.0087 51.3207 14.0278C54.6606 14.0469 57.428 16.2799 58.1724 19.5435C58.306 20.0969 58.3632 20.6695 58.3632 21.2421C58.3823 23.3224 58.3823 25.3836 58.3632 27.4639C58.3632 28.1319 58.2487 28.7999 57.9242 29.3915C57.1799 30.842 55.5958 31.6055 53.9736 31.3383C53.7636 31.3001 53.5537 31.2428 53.2292 31.1856ZM50.939 33.0941C50.939 29.8496 50.939 26.6051 50.939 23.3606C50.939 23.1315 50.939 22.8834 50.9581 22.6544C51.0344 22.12 51.4352 21.7383 51.9505 21.7001C52.504 21.662 52.962 21.9291 53.1147 22.4445C53.1911 22.6926 53.2101 22.9598 53.2101 23.227C53.2292 24.1621 53.2101 25.0782 53.2101 26.0134C53.2101 26.6242 53.1911 27.254 53.2292 27.8647C53.2865 28.5327 53.8209 29.048 54.4889 29.1053C55.1187 29.1816 55.7676 28.7426 55.9584 28.1128C56.0348 27.8647 56.0539 27.5975 56.0539 27.3303C56.0539 25.3073 56.073 23.2842 56.0539 21.2421C56.0539 20.7649 55.9966 20.2878 55.863 19.8298C55.2905 17.6922 53.4392 16.2989 51.1489 16.2989C46.6829 16.2989 42.236 16.2989 37.77 16.2989C36.7585 16.2989 35.8997 16.6234 35.1744 17.3105C34.3347 18.1311 33.4758 18.9327 32.6361 19.7343C31.8345 20.4977 31.4337 20.5168 30.5748 19.8679C29.2961 18.8755 28.0174 17.883 26.7196 16.8906C26.5478 16.757 26.376 16.6234 26.1852 16.528C25.4981 16.1653 24.6584 16.3562 24.2003 16.9669C23.7232 17.5968 23.7613 18.4174 24.2957 19.0091C24.4484 19.1618 24.6202 19.2954 24.792 19.429C26.586 20.7649 28.38 22.1009 30.174 23.456C31.1665 24.2003 32.1971 24.3339 33.3041 23.7423C34.2392 23.2651 35.1744 22.8071 36.1096 22.3299C36.4532 22.1582 36.7967 21.9864 37.1402 21.8337C37.9991 21.4711 38.7434 21.891 38.8388 22.8262C38.8579 23.0552 38.8579 23.3033 38.8579 23.5323C38.8579 29.8687 38.8579 36.2241 38.8579 42.5605C38.8579 42.8277 38.8579 43.0758 38.8579 43.343C38.9152 44.6408 39.8885 45.6714 41.1672 45.7096C42.6177 45.7477 43.5148 44.6981 43.6484 43.6865C43.6865 43.3812 43.7056 43.0758 43.7056 42.7704C43.7056 39.7358 43.7056 36.7203 43.7056 33.6858C43.7056 33.4758 43.7056 33.2468 43.7247 33.0369C43.7819 32.4452 44.1637 32.0444 44.7171 31.9872C45.3279 31.9299 45.7859 32.2353 45.9386 32.846C45.9959 33.0941 45.9959 33.3613 45.9959 33.6285C45.9959 36.6631 45.9959 39.6786 45.9959 42.7132C45.9959 42.9804 45.9959 43.2476 46.0149 43.4957C46.1104 44.679 47.0456 45.5951 48.267 45.7096C49.3358 45.805 50.4809 45.0225 50.7481 43.9537C50.8436 43.5911 50.8626 43.1903 50.8626 42.8277C50.939 39.5832 50.939 36.3386 50.939 33.0941ZM27.8647 2.34751C19.2954 2.34751 10.8214 2.34751 2.32842 2.34751C2.32842 7.86319 2.32842 13.3407 2.32842 18.8564C8.81746 18.8564 15.2683 18.8564 21.7574 18.8564C21.452 17.1196 21.9482 15.6882 23.3987 14.7149C24.8492 13.7415 26.357 13.8751 27.8838 14.7721C27.8647 10.5733 27.8647 6.48904 27.8647 2.34751ZM25.5745 42.5223C25.5745 42.1215 25.5554 41.7016 25.479 41.3199C24.8874 38.5525 23.227 36.7585 20.5359 35.9188C20.3832 35.8806 20.2496 35.8233 20.0969 35.7661C22.9598 32.178 21.8146 28.3609 19.7534 26.3951C18.4365 25.1355 16.757 24.5057 15.0584 24.5057C13.3598 24.5057 11.6803 25.1546 10.3634 26.3951C8.30216 28.38 7.15703 32.1971 10.0198 35.7661C9.86716 35.8233 9.71448 35.8806 9.58088 35.9188C6.88984 36.7776 5.2294 38.5716 4.63776 41.3199C4.56142 41.7207 4.54233 42.1215 4.54233 42.5223C4.52324 43.8774 4.52324 45.2515 4.54233 46.6066C4.54233 47.599 4.94312 47.9807 5.93557 47.9998C6.10733 47.9998 6.2791 47.9998 6.43179 47.9998H15.0584H23.685C23.8568 47.9998 24.0285 47.9998 24.1812 47.9998C25.1737 47.9807 25.5745 47.5799 25.5745 46.6066C25.5935 45.2515 25.5935 43.8965 25.5745 42.5223ZM15.0584 26.7578C17.8067 26.7959 19.5244 28.9526 19.5244 31.2237C19.5244 33.6667 17.4822 35.6897 15.0584 35.6706C12.6345 35.6897 10.6115 33.6667 10.5924 31.2237C10.6115 28.9717 12.3292 26.7959 15.0584 26.7578ZM23.2842 45.3088C23.2842 45.4233 23.246 45.5378 23.227 45.6905H20.0206C20.0015 45.4996 19.9633 45.3279 19.9633 45.137C19.9633 44.3545 19.9633 43.5529 19.9633 42.7704C19.9443 42.0261 19.5244 41.549 18.8755 41.5108C18.2075 41.4917 17.7113 41.9879 17.6922 42.7513C17.6731 43.4575 17.6922 44.1827 17.6922 44.908V45.5951C17.4059 45.6714 16.2417 45.7096 15.0584 45.7096C13.8751 45.7096 12.7109 45.6714 12.4246 45.5951V44.908C12.4246 44.1827 12.4437 43.4766 12.4246 42.7513C12.4055 41.9879 11.8902 41.4726 11.2413 41.5108C10.5924 41.5299 10.1725 42.007 10.1534 42.7704C10.1344 43.5529 10.1534 44.3545 10.1534 45.137C10.1534 45.3279 10.1153 45.4996 10.0962 45.6905H6.88984C6.87075 45.5378 6.83258 45.4233 6.83258 45.3088C6.83258 44.2973 6.8135 43.3048 6.85167 42.2933C6.92801 40.003 8.74112 38.1327 11.0314 37.9991C11.6994 37.9609 12.3674 37.9609 13.0353 37.98C13.7033 37.98 14.3904 37.98 15.0584 37.98C15.7264 37.98 16.4135 37.98 17.0814 37.98C17.7494 37.98 18.4174 37.9609 19.0854 37.9991C21.3757 38.1518 23.1888 40.003 23.2651 42.2933C23.3033 43.3048 23.2842 44.2973 23.2842 45.3088ZM51.2634 6.35544C51.2634 9.86716 48.4006 12.73 44.8889 12.7109C41.4344 12.7109 38.5335 9.84808 38.5716 6.37453C38.5907 2.78647 41.3963 0.0381708 44.9462 0.0190854C48.4197 0 51.2634 2.8819 51.2634 6.35544ZM44.9462 10.4206C47.1601 10.4206 48.9732 8.58844 48.9732 6.35544C48.9732 4.14154 47.141 2.29025 44.9271 2.29025C42.6941 2.29025 40.8237 4.17971 40.8428 6.39362C40.881 8.60752 42.7323 10.4206 44.9462 10.4206ZM23.227 11.5658C23.227 10.9359 22.7116 10.4206 22.0818 10.4206H8.07313C7.44331 10.4206 6.92801 10.9359 6.92801 11.5658C6.92801 12.1956 7.44331 12.7109 8.07313 12.7109H22.0818C22.7116 12.7109 23.227 12.1956 23.227 11.5658ZM23.227 7.13795C23.227 6.50813 22.7116 5.99282 22.0818 5.99282H8.07313C7.44331 5.99282 6.92801 6.50813 6.92801 7.13795C6.92801 7.76777 7.44331 8.28307 8.07313 8.28307H22.0818C22.7116 8.28307 23.227 7.76777 23.227 7.13795Z" fill="#22345B"/>
</svg>
