<svg width="8" height="14" viewBox="0 0 8 14" fill="none" xmlns="http://www.w3.org/2000/svg">
<path d="M1.99238 8.25846C1.90579 8.25846 1.84086 8.25846 1.77952 8.25846C1.41153 8.25846 1.03993 8.26207 0.671944 8.25486C0.394147 8.25125 0.184897 8.11776 0.073057 7.86161C0.0261562 7.76059 0.00811744 7.63793 0.00450969 7.52609C-0.00270581 6.84062 0.000901938 6.15154 0.000901938 5.46606C0.000901938 5.17023 0.112742 4.93933 0.383324 4.79863C0.505987 4.73369 0.635866 4.72648 0.769353 4.72648C1.10848 4.72648 1.45122 4.72648 1.79035 4.72648C1.84807 4.72648 1.90579 4.72648 1.98156 4.72648C1.98517 4.66154 1.98877 4.60742 1.98877 4.5533C1.99238 4.15645 1.97434 3.75599 1.9996 3.35914C2.06093 2.35979 2.39645 1.4795 3.16851 0.80485C3.47877 0.534269 3.83594 0.335843 4.22919 0.198748C4.63686 0.0544381 5.05536 0.000321798 5.48468 0.00392955C6.09079 0.0147528 6.69689 0.0219683 7.30299 0.000321798C7.588 -0.0105015 7.93795 0.252864 7.95238 0.613639C7.95238 0.635286 7.95599 0.66054 7.95599 0.682187C7.95599 1.3388 7.95599 1.99902 7.95599 2.65563C7.95599 2.91899 7.84776 3.12463 7.62408 3.26173C7.49781 3.3411 7.3535 3.35914 7.20919 3.35914C6.82316 3.35914 6.43713 3.35553 6.04749 3.36275C5.58931 3.37357 5.60735 3.47819 5.60013 3.82093C5.59652 4.07347 5.60013 4.32962 5.60013 4.58217C5.60013 4.62185 5.60374 4.66154 5.60735 4.71565C5.67589 4.71926 5.73723 4.72287 5.79856 4.72287C6.23149 4.72287 6.66442 4.72287 7.09735 4.72287C7.25248 4.72287 7.40761 4.7373 7.54832 4.82388C7.772 4.96459 7.88023 5.17744 7.88384 5.4336C7.89105 6.14432 7.89466 6.85505 7.88384 7.56217C7.87662 8.00592 7.53028 8.26207 7.17311 8.25486C6.71853 8.24764 6.26035 8.25125 5.80577 8.25125C5.74444 8.25125 5.68311 8.25125 5.60374 8.25125C5.60374 8.34144 5.60374 8.40638 5.60374 8.47493C5.60374 10.0515 5.60374 11.6245 5.60013 13.2011C5.60013 13.3201 5.59652 13.45 5.55323 13.5582C5.44861 13.8288 5.24296 13.984 4.94713 13.9948C4.69459 14.002 4.43844 13.9984 4.18589 13.9984C3.68442 13.9984 3.18294 14.002 2.67785 13.9984C2.35316 13.9948 2.11504 13.8144 2.02485 13.5041C1.9996 13.4139 1.99599 13.3093 1.99599 13.2155C1.99238 12.328 1.99599 11.4369 1.99599 10.5494C1.99599 9.8567 1.99599 9.16401 1.99599 8.47132C1.99238 8.4136 1.99238 8.34866 1.99238 8.25846ZM7.05045 5.54904C6.69689 5.54904 6.36137 5.54904 6.02585 5.54904C5.76609 5.54904 5.50633 5.55265 5.24657 5.54904C5.03732 5.54544 4.87137 5.4372 4.81364 5.26403C4.78839 5.18827 4.77756 5.10529 4.77756 5.02592C4.77396 4.63989 4.77396 4.25386 4.77756 3.86422C4.78117 3.71991 4.78839 3.5756 4.81364 3.4349C4.87858 3.05248 5.08422 2.77107 5.45582 2.64841C5.62178 2.59069 5.80217 2.55822 5.97895 2.54739C6.30003 2.52936 6.62473 2.54018 6.94943 2.54018C7.00715 2.54018 7.06127 2.53657 7.11539 2.53296C7.15146 2.33093 7.14425 0.938337 7.10456 0.815674C7.07931 0.815674 7.05045 0.812066 7.02159 0.812066C6.52372 0.812066 6.02945 0.808458 5.53158 0.812066C5.18524 0.815674 4.8425 0.862574 4.51059 0.978022C4.04519 1.14037 3.65555 1.40734 3.36333 1.80059C3.01698 2.26599 2.85824 2.79633 2.82938 3.36635C2.81495 3.6658 2.81856 3.96524 2.81856 4.26829C2.81856 4.52083 2.81856 4.77698 2.81856 5.02953C2.81856 5.17744 2.78969 5.31454 2.67785 5.42638C2.57684 5.5274 2.45417 5.55987 2.31347 5.55626C1.88054 5.55626 1.44761 5.55626 1.01468 5.55626C0.953348 5.55626 0.892016 5.55987 0.830685 5.56347C0.830685 6.19844 0.830685 6.81176 0.830685 7.4359C0.866762 7.44311 0.895624 7.45033 0.920878 7.45033C1.06519 7.45033 1.2095 7.45033 1.35381 7.45033C1.68933 7.45033 2.02485 7.44672 2.35676 7.45394C2.60931 7.45754 2.76444 7.59825 2.80412 7.85079C2.81495 7.92294 2.81495 7.99871 2.81495 8.07447C2.81495 9.70878 2.81495 11.3431 2.81495 12.9738C2.81495 13.0423 2.81856 13.1073 2.82216 13.1794C3.47877 13.1794 4.11374 13.1794 4.77035 13.1794C4.77035 13.1037 4.77035 13.0351 4.77035 12.9666C4.77035 11.3214 4.77035 9.67631 4.77035 8.03118C4.77035 7.94098 4.77396 7.84357 4.79921 7.75699C4.84972 7.58021 4.97599 7.47558 5.15999 7.45394C5.22132 7.44672 5.28626 7.44672 5.3512 7.44672C5.85267 7.44672 6.35415 7.44672 6.85924 7.44672C6.92057 7.44672 6.9819 7.44311 7.04323 7.4395C7.05045 6.80093 7.05045 6.18401 7.05045 5.54904Z" fill="#22345B"/>
</svg>
