<svg width="14" height="14" viewBox="0 0 14 14" fill="none" xmlns="http://www.w3.org/2000/svg">
<path d="M10.1603 0H3.83966C1.71308 0 0 1.71308 0 3.89873V10.1603C0 12.2869 1.71308 14 3.83966 14H10.1013C12.2278 14 13.9409 12.2869 13.9409 10.1603V3.89873C14 1.71308 12.2869 0 10.1603 0ZM12.7595 10.1603C12.7595 11.6371 11.5781 12.7595 10.1603 12.7595H3.83966C2.42194 12.7595 1.24051 11.5781 1.24051 10.1603V3.89873C1.24051 2.42194 2.42194 1.29958 3.83966 1.29958H10.1013C11.519 1.29958 12.7004 2.48101 12.7004 3.89873V10.1603H12.7595ZM7.02954 3.36709C5.0211 3.36709 3.42616 4.96203 3.42616 6.97046C3.42616 8.9789 5.0211 10.5738 7.02954 10.5738C9.03797 10.5738 10.6329 8.9789 10.6329 6.97046C10.6329 5.0211 8.9789 3.36709 7.02954 3.36709ZM7.02954 9.3924C5.72996 9.3924 4.66667 8.32911 4.66667 7.02954C4.66667 5.72996 5.72996 4.66667 7.02954 4.66667C8.32911 4.66667 9.3924 5.72996 9.3924 7.02954C9.3924 8.32911 8.32911 9.3924 7.02954 9.3924ZM10.7511 2.36287C10.5148 2.36287 10.2785 2.48101 10.1013 2.65823C9.92405 2.83544 9.80591 3.07173 9.80591 3.30802C9.80591 3.5443 9.92405 3.78059 10.1013 3.95781C10.2785 4.13502 10.5148 4.19409 10.7511 4.19409C10.9873 4.19409 11.2236 4.07595 11.4008 3.95781C11.5781 3.78059 11.6962 3.5443 11.6962 3.30802C11.6962 3.07173 11.5781 2.83544 11.4008 2.65823C11.2236 2.42194 10.9873 2.36287 10.7511 2.36287Z" fill="#22345B"/>
</svg>
