<svg width="15" height="14" viewBox="0 0 15 14" fill="none" xmlns="http://www.w3.org/2000/svg">
<path d="M8.7141 13.9927C7.46216 13.9927 6.2306 13.9927 4.99904 13.9927C4.97283 13.8879 4.96701 4.5682 4.9903 4.36439C6.22477 4.36439 7.46216 4.36439 8.71119 4.36439C8.71119 4.55946 8.71119 4.75453 8.71119 4.96707C8.76068 4.94087 8.79271 4.92631 8.81891 4.90593C9.47691 4.46921 10.2048 4.29161 10.9822 4.37022C12.0448 4.47794 12.9096 4.95834 13.5646 5.80558C13.8995 6.23939 14.1266 6.72852 14.2285 7.26424C14.275 7.51463 14.3042 7.77084 14.3071 8.02705C14.3129 9.97775 14.31 11.9284 14.31 13.8821C14.31 13.9141 14.3071 13.9461 14.3071 13.9781C14.2052 14.0014 10.7667 14.0102 10.5804 13.984C10.5775 13.9316 10.5745 13.8762 10.5745 13.8238C10.5745 12.1526 10.5745 10.4814 10.5745 8.80733C10.5745 8.60352 10.5542 8.40845 10.4435 8.23085C10.2455 7.91641 9.95731 7.75628 9.58755 7.77957C9.18285 7.80869 8.90626 8.02705 8.7636 8.40845C8.7141 8.53947 8.7141 8.6734 8.7141 8.80733C8.7141 10.4756 8.7141 12.141 8.7141 13.8093C8.7141 13.8675 8.7141 13.9228 8.7141 13.9927ZM13.6898 13.3696C13.6898 13.2968 13.6898 13.2415 13.6898 13.1833C13.6898 11.5208 13.6927 9.85838 13.6869 8.19591C13.6869 7.96882 13.6724 7.73881 13.6374 7.51463C13.5151 6.74599 13.1367 6.12002 12.534 5.6338C12.1235 5.30189 11.6547 5.09809 11.1335 5.01657C10.2223 4.8739 9.42741 5.11556 8.76068 5.75317C8.55397 5.94824 8.37054 6.1666 8.17547 6.37332C8.15218 6.39661 8.12307 6.41991 8.08522 6.45193C8.08522 6.1899 8.08522 5.94824 8.08522 5.70659C8.08522 5.46494 8.08522 5.22619 8.08522 4.98745C7.81736 4.95834 5.70071 4.96998 5.60463 4.9991C5.58134 5.31645 5.59298 13.2532 5.61918 13.3696C6.4344 13.3696 7.25253 13.3696 8.08813 13.3696C8.08813 13.3085 8.08813 13.2532 8.08813 13.2008C8.08813 11.7421 8.08813 10.2835 8.08813 8.82771C8.08813 8.69669 8.09395 8.56567 8.11724 8.43757C8.22497 7.81451 8.72866 7.29918 9.33716 7.18563C9.99224 7.06334 10.6269 7.33994 10.9705 7.89603C11.1394 8.16971 11.2034 8.46959 11.2034 8.78986C11.2034 10.2631 11.2034 11.7334 11.2034 13.2066C11.2034 13.2619 11.2063 13.3143 11.2092 13.3725C12.039 13.3696 12.8572 13.3696 13.6898 13.3696ZM3.72672 4.3673C3.72672 7.57868 3.72672 10.7813 3.72672 13.9898C2.48642 13.9898 1.25486 13.9898 0.0174766 13.9898C0.0174766 13.9898 0.0145651 13.9869 0.0116536 13.984C0.00874211 13.981 0.00583062 13.9781 0.00291913 13.9723C0.00291913 13.9461 7.63839e-06 13.917 7.63839e-06 13.8908C7.63839e-06 10.7202 7.63839e-06 7.54956 7.63839e-06 4.37895C0.104821 4.35275 3.4938 4.3411 3.72672 4.3673ZM0.625978 13.3784C1.04523 13.3784 1.45284 13.3784 1.86336 13.3784C2.27388 13.3755 2.68731 13.3871 3.10366 13.3725C3.10657 13.323 3.10948 13.291 3.10948 13.259C3.10948 10.5076 3.10657 7.75628 3.10366 5.00201C3.10366 4.9991 3.10075 4.99327 3.09783 4.99036C3.09492 4.98745 3.09201 4.98454 3.08619 4.98163C2.26806 4.98163 1.44993 4.98163 0.625978 4.98163C0.625978 7.77666 0.625978 10.5659 0.625978 13.3784ZM1.86045 3.72678C0.826871 3.72386 -0.00290385 2.88827 7.63839e-06 1.86051C0.00291913 0.826931 0.850163 -0.00866662 1.88374 6.78572e-05C2.86783 0.00880233 3.73254 0.791993 3.72963 1.86924C3.72672 2.96979 2.82415 3.73842 1.86045 3.72678ZM3.10657 1.87798C3.11239 1.22872 2.61453 0.631861 1.87501 0.626038C1.18207 0.620215 0.631801 1.14137 0.625978 1.86051C0.620155 2.57091 1.17625 3.09498 1.8488 3.10663C2.54174 3.11536 3.10075 2.55636 3.10657 1.87798Z" fill="#22345B"/>
</svg>
