<svg width="44" height="42" viewBox="0 0 44 42" fill="none" xmlns="http://www.w3.org/2000/svg">
<path d="M42.9573 35.4549C42.2077 36.2112 41.4374 36.9882 40.6879 37.7652C40.3027 38.1589 39.8551 38.3454 39.2825 38.3454C38.127 38.3351 36.9403 38.3351 35.8056 38.3351C35.3163 38.3351 34.8167 38.3351 34.3274 38.3351H34.2857C34.1816 38.3351 34.0775 38.3351 33.9734 38.3247C33.2656 38.2522 32.7034 37.7031 32.6514 36.9986C32.5889 36.2941 33.047 35.6621 33.7444 35.486C33.9422 35.4342 34.1608 35.4342 34.317 35.4342C35.5349 35.4342 36.7737 35.4342 37.9605 35.4342H38.5226C38.6892 35.4342 38.9182 35.4342 39.1264 35.227C39.3866 34.968 39.6573 34.7193 39.9384 34.45C40.0529 34.3463 40.1674 34.2324 40.2923 34.1288L40.4484 33.9837L40.3027 33.8283C40.1882 33.704 40.0737 33.59 39.9696 33.4864C39.7406 33.2482 39.5428 33.0513 39.3554 32.8337C39.1264 32.5644 38.8453 32.4401 38.4497 32.4401C38.4497 32.4401 38.4497 32.4401 38.4393 32.4401C34.775 32.4504 31.1107 32.4504 27.5713 32.4504C26.7385 32.4504 26.2388 32.0774 25.9994 31.2797L25.9682 31.1657C25.8432 30.7617 25.7183 30.3369 25.5726 29.9329C25.2811 29.0833 24.8959 28.814 23.9903 28.814C22.9389 28.814 21.8979 28.814 20.8465 28.814H19.8263C19.743 28.814 19.6701 28.814 19.5868 28.814C19.3891 28.814 19.1809 28.814 18.9831 28.8243C18.4001 28.8554 17.9733 29.1351 17.7547 29.6324C17.1613 30.9585 16.8386 32.2432 16.7761 33.5382C16.7033 34.9783 16.9948 36.4288 17.6818 38.0968C17.9837 38.822 18.3897 39.0914 19.1809 39.1017C20.6903 39.1017 22.283 39.1017 24.0527 39.1017C24.8751 39.1017 25.3227 38.7909 25.5934 38.0242C25.6975 37.7342 25.7912 37.4337 25.8745 37.1436C25.9369 36.9261 26.0098 36.6981 26.0827 36.4806C26.3429 35.7139 27.0716 35.2995 27.8315 35.5067C28.6331 35.7243 29.0703 36.4495 28.8621 37.2369C28.6956 37.8688 28.4978 38.5423 28.2271 39.2675C28.0606 39.7233 27.7899 40.1585 27.4256 40.5625C26.5719 41.4949 25.4789 41.9715 24.1776 41.9922C23.4177 42.0026 22.6474 42.0026 21.8979 41.9922C21.5751 41.9922 21.2524 41.9922 20.9297 41.9922C20.9297 41.9922 20.9297 41.9922 20.9193 41.9922C20.7215 41.9922 20.5237 41.9922 20.3155 41.9922C19.8783 41.9922 19.4203 42.0026 18.9727 41.9819C17.2342 41.9197 15.9538 41.122 15.1626 39.6197C14.7462 38.822 14.486 37.9414 14.2778 37.1747C13.8197 35.486 13.7156 33.8076 13.9655 32.1707C14.1424 31 14.4755 29.8396 14.9856 28.6482C15.7247 26.8973 17.0468 25.9752 18.9102 25.9131C19.7638 25.882 20.6278 25.8716 21.4398 25.8716C22.4912 25.8716 23.4698 25.8924 24.313 25.9027C26.166 25.9442 27.6025 26.9905 28.2479 28.7622C28.3 28.8968 28.352 29.0419 28.4041 29.1869L28.5394 29.5392H31.7145C34.2337 29.5392 36.8362 29.5392 39.397 29.5392C39.397 29.5392 39.397 29.5392 39.4075 29.5392C39.9488 29.5392 40.3548 29.6946 40.6775 30.0261C40.9377 30.2955 41.198 30.5545 41.4582 30.8239C42.114 31.4973 42.8011 32.1914 43.4569 32.8855C43.6235 33.0513 43.7484 33.2689 43.8213 33.4657C44.0191 34.0252 43.8837 34.5432 43.4049 35.0301L42.9573 35.4549ZM20.3364 32.4504C19.9512 32.4608 19.5868 32.6162 19.3162 32.8959C19.0455 33.1756 18.8998 33.5486 18.9102 33.9319C18.9206 34.3153 19.0768 34.6779 19.3682 34.9472C19.6493 35.2166 20.0241 35.3617 20.4092 35.3513C20.7944 35.3409 21.1588 35.1752 21.4294 34.8954C21.7001 34.6157 21.8354 34.2427 21.825 33.8594C21.7833 33.072 21.1171 32.4401 20.3364 32.4504ZM20.607 22.0901C17.7963 22.173 15.0897 22.8775 12.5809 24.1726C10.4989 25.25 8.65636 26.6901 7.12609 28.441C5.56459 30.223 4.39868 32.2018 3.68039 34.2945C3.43055 35.0094 3.21194 35.7864 3.00374 36.6152C2.84759 37.2576 2.9621 37.8688 3.32645 38.3351C3.6908 38.8013 4.26335 39.0603 4.95041 39.0706C6.21001 39.081 7.49044 39.081 8.71882 39.081C9.29137 39.081 9.87433 39.081 10.4469 39.081H10.5302C10.6551 39.081 10.7696 39.081 10.8841 39.0914C11.4879 39.1535 11.9876 39.5679 12.1541 40.1377C12.3207 40.7179 12.1125 41.3292 11.6232 41.6918C11.3525 41.8886 11.0298 41.9922 10.6238 41.9922C10.6238 41.9922 10.6238 41.9922 10.6134 41.9922C9.91597 41.9922 9.2185 41.9922 8.52103 41.9922C8.37529 41.9922 8.22955 41.9922 8.08381 41.9922C7.02199 41.9922 5.96017 41.9922 4.89836 41.9922C4.64852 41.9922 4.38827 41.9715 4.05515 41.9197C2.04602 41.6193 0.401243 40.0134 0.0681239 38.0035C-0.046386 37.3405 -0.015156 36.667 0.151404 35.9522C0.536573 34.2635 1.09871 32.668 1.817 31.2072C2.42078 29.9743 3.13907 28.814 3.94064 27.7468C5.31476 25.9338 6.9283 24.3694 8.73964 23.0951C10.3115 21.9865 12.0396 21.0956 13.8822 20.4429C13.9863 20.4014 14.0904 20.3703 14.2049 20.3289L14.7358 20.132L14.4547 19.9041C11.3942 17.4384 9.90556 14.3096 10.0305 10.611C10.1242 7.68935 11.2589 5.17181 13.3825 3.12047C17.7755 -1.10652 24.8022 -1.034 29.0391 3.30696C31.3605 5.67946 32.4224 8.55962 32.1829 11.8542C31.9435 15.097 30.5069 17.7285 27.7899 19.9041L27.5088 20.132L27.8524 20.2564C27.9461 20.2875 28.0293 20.3185 28.1126 20.3496C28.2896 20.4118 28.4457 20.4739 28.6123 20.5361C29.2889 20.8055 29.6429 21.3338 29.6012 22.0383C29.57 22.4527 29.3618 22.8361 29.0183 23.0847C28.6852 23.3334 28.2584 23.4163 27.8524 23.323C27.6129 23.2609 27.3631 23.178 27.1341 23.1054L27.0404 23.0744C24.9584 22.3491 22.8035 22.028 20.607 22.0901ZM15.2771 16.765C16.7866 18.2879 18.8061 19.1478 20.9506 19.1893C21.0026 19.1893 21.0546 19.1893 21.1067 19.1893C23.2616 19.1893 25.3019 18.3708 26.8426 16.8686C28.4249 15.3249 29.2994 13.2632 29.3098 11.0564C29.3202 8.89115 28.4666 6.83981 26.9155 5.29613C25.3644 3.74209 23.3032 2.88219 21.1067 2.88219H21.0963C18.9102 2.88219 16.849 3.73173 15.2979 5.28577C13.7468 6.82945 12.8932 8.88079 12.9036 11.0461C12.914 13.1907 13.7573 15.2316 15.2771 16.765Z" fill="#22345B"/>
</svg>
