<svg width="217" height="44" viewBox="0 0 217 44" fill="none" xmlns="http://www.w3.org/2000/svg">
<path d="M64.203 19.67C63.731 16.5228 61.2132 14.7132 58.1447 14.7132C55.0761 14.7132 52.3223 16.5228 51.8502 19.67H64.203ZM51.6929 22.2665C51.9289 25.8858 55.1548 27.7741 58.1447 27.7741C60.033 27.7741 62.6294 27.1447 63.731 24.7056H67.2716C65.6193 28.8756 61.6853 30.6066 58.302 30.6066C51.5355 30.6066 48.231 26.3579 48.231 21.3223C48.231 16.2868 51.5355 12.0381 58.302 12.0381C62.8655 12.0381 67.7436 14.7132 67.7436 21.9518V22.3452L51.6929 22.2665Z" fill="#68BB45"/>
<path d="M83.9517 12.5888H87.6497L79.7817 29.9772H76.1624L68.2157 12.5888H72.071L78.0507 26.3579L83.9517 12.5888Z" fill="#68BB45"/>
<path d="M104.094 19.67C103.622 16.5228 101.104 14.7132 98.0355 14.7132C94.967 14.7132 92.2132 16.5228 91.7411 19.67H104.094ZM91.5838 22.2665C91.8198 25.8858 95.0457 27.7741 98.0355 27.7741C99.9239 27.7741 102.52 27.1447 103.622 24.7056H107.162C105.51 28.8756 101.655 30.6066 98.1929 30.6066C91.4264 30.6066 88.1218 26.3579 88.1218 21.3223C88.1218 16.2868 91.4264 12.0381 98.1929 12.0381C102.756 12.0381 107.635 14.7132 107.635 21.9518V22.3452L91.5838 22.2665Z" fill="#68BB45"/>
<path d="M110.388 12.5889H113.693V15.7361H113.772C115.345 12.9823 117.548 11.9594 119.751 11.9594C120.617 11.9594 121.01 11.9594 121.64 12.1955V15.8147C120.774 15.5787 120.145 15.5 119.279 15.5C115.975 15.5 113.693 17.467 113.693 21.2437V30.1345H110.388V12.5889Z" fill="#68BB45"/>
<path d="M133.442 14.9492C129.586 14.9492 126.99 17.3883 126.99 21.401C126.99 24.7056 128.957 27.8528 133.442 27.8528C137.926 27.8528 139.815 24.7056 139.815 21.401C139.815 17.3883 137.297 14.9492 133.442 14.9492ZM123.921 6.05838H127.226V15.1853H127.305C128.642 13.0609 131.317 12.1168 133.914 12.1168C139.185 12.1168 143.434 15.5 143.434 21.3223C143.434 27.1447 139.185 30.5279 133.914 30.5279C131.317 30.5279 128.564 29.5051 127.305 27.6954H127.226V29.8985H123.921V6.05838Z" fill="#0096DB"/>
<path d="M145.322 12.5889H148.627V15.7361H148.706C150.279 12.9823 152.482 11.9594 154.685 11.9594C155.551 11.9594 155.944 11.9594 156.574 12.1955V15.8147C155.708 15.5787 155.079 15.5 154.213 15.5C150.909 15.5 148.627 17.467 148.627 21.2437V30.1345H145.322V12.5889Z" fill="#0096DB"/>
<path d="M158.226 12.5888H161.53V30.0558H158.226V12.5888ZM158.226 6.05838H161.53V9.75635H158.226V6.05838Z" fill="#0096DB"/>
<path d="M173.411 14.9492C169.32 14.9492 166.959 17.6244 166.959 21.2437C166.959 24.8629 169.32 27.3807 173.411 27.3807C177.424 27.3807 179.863 24.7843 179.863 21.2437C179.863 17.703 177.424 14.9492 173.411 14.9492ZM179.863 12.5888H183.168V28.5609C183.168 34.8553 180.178 37.3731 173.018 37.3731C169.241 37.3731 164.914 36.7437 164.206 31.9442H167.51C168.14 34.2259 170.107 34.7767 173.333 34.7767C178.053 34.7767 179.784 32.3376 179.784 29.5051V26.9873H179.706C177.817 29.6624 175.221 30.2132 172.939 30.2132C168.297 30.2132 163.419 27.6954 163.419 21.2437C163.419 14.7919 168.297 12.1954 172.939 12.1954C175.772 12.1954 178.447 13.1396 179.706 15.1853H179.784L179.863 12.5888Z" fill="#0096DB"/>
<path d="M186.393 6.05838H189.698V15.1853H189.777C191.35 12.7462 194.104 11.9594 196.622 11.9594C200.792 11.9594 203.939 13.769 203.939 18.0965V29.9772H200.635V18.8046C200.635 16.2081 199.061 14.7919 195.442 14.7919C192.373 14.7919 189.698 16.5228 189.698 19.9848V30.0558H186.393V6.05838Z" fill="#0096DB"/>
<path d="M208.739 7.23859H212.043V12.5888H217V15.1853H212.043V25.8858C212.043 27.302 213.066 27.7741 214.718 27.7741C215.505 27.7741 216.213 27.6954 217 27.5381V30.2919C215.898 30.5279 214.64 30.5279 213.302 30.5279C210.076 30.5279 208.739 28.9543 208.739 26.4366V15.1853H205.119V12.5888H208.739V7.23859Z" fill="#0096DB"/>
<path d="M9.83503 9.20558L12.5888 0L21.0863 4.48477L17.0736 10.8579L9.83503 9.20558ZM25.9645 10.9365L33.3604 9.28426L30.4492 0L21.9518 4.48477L25.9645 10.9365ZM32.1802 17.1523L38.5533 21.165L43.0381 12.5888L33.8325 9.75634L32.1802 17.1523ZM32.1802 25.8858L33.8325 33.2817L43.0381 30.4492L38.5533 21.8731L32.1802 25.8858ZM25.9645 32.1015L21.9518 38.5533L30.4492 43.0381L33.2817 33.8325L25.9645 32.1015ZM17.1523 32.1015L9.75634 33.8325L12.5888 43.0381L21.165 38.5533L17.1523 32.1015ZM10.9365 25.8858L4.56345 21.8731L0 30.4492L9.20558 33.2817L10.9365 25.8858ZM10.9365 17.1523L9.28426 9.75634L0 12.5888L4.48477 21.0863L10.9365 17.1523Z" fill="url(#paint0_linear_88_93)"/>
<defs>
<linearGradient id="paint0_linear_88_93" x1="21.2437" y1="5.11421" x2="21.519" y2="43.0381" gradientUnits="userSpaceOnUse">
<stop stop-color="#0096DB"/>
<stop offset="1" stop-color="#68BB45"/>
</linearGradient>
</defs>
</svg>
