<svg width="51" height="51" viewBox="0 0 51 51" fill="none" xmlns="http://www.w3.org/2000/svg">
<path d="M51 40.7212V38.2305C51 38.1778 51 38.1383 51 38.0856C50.9605 36.8996 50.1832 35.8717 49.0633 35.5554C48.7734 35.4763 48.4441 35.4368 48.0356 35.4236C47.2583 35.4104 46.481 35.4104 45.73 35.4104C45.3611 35.4104 44.9923 35.4104 44.6234 35.4104C44.5048 35.4104 44.3994 35.4104 44.2676 35.3973C44.2676 35.2787 44.2676 35.1601 44.2676 35.0546C44.2676 34.6725 44.2676 34.3167 44.2676 33.9609C44.2281 32.6299 43.4113 31.5756 42.1596 31.2857C41.8566 31.2198 41.5404 31.2198 41.2374 31.2198C37.364 31.2198 33.4774 31.2198 29.604 31.2198H26.5869V29.0455C27.5092 28.9796 28.1416 28.4393 28.4709 27.3982C28.5763 27.0951 28.6949 26.792 28.8135 26.5153C28.853 26.4231 28.8925 26.3308 28.9321 26.2386L31.3431 25.237C31.4616 25.2897 31.5934 25.3425 31.7251 25.3952C32.0809 25.5401 32.4498 25.6983 32.8055 25.8696C33.6355 26.2517 34.3865 26.1331 35.032 25.5138C35.48 25.0789 35.9147 24.644 36.4417 24.1169C37.1005 23.4448 37.2322 22.6805 36.8238 21.8108C36.6525 21.455 36.5076 21.086 36.3627 20.7302C36.31 20.6116 36.2573 20.493 36.2178 20.3744L37.2191 17.9628C37.3376 17.9101 37.4694 17.8574 37.6011 17.8046C37.9569 17.6597 38.3258 17.5147 38.6947 17.3698C39.551 17.0535 40.0121 16.421 40.0385 15.4985C40.0517 14.8791 40.0517 14.2466 40.0385 13.5613C40.0121 12.6257 39.551 11.98 38.6683 11.6637C38.2994 11.5319 37.9305 11.3738 37.5748 11.2288C37.4562 11.1761 37.3376 11.1234 37.2191 11.0839L36.2178 8.68548L36.389 8.26379C36.5471 7.86845 36.7184 7.47311 36.8897 7.07777C37.2059 6.35298 37.0873 5.65455 36.5603 5.07471C36.2573 4.74526 35.9411 4.42899 35.6381 4.1259C35.48 3.96776 35.3219 3.80963 35.177 3.65149C34.4523 2.91352 33.6091 2.78174 32.6606 3.25615C32.3444 3.41429 32.015 3.54607 31.6856 3.67785C31.567 3.71738 31.4616 3.77009 31.3562 3.80963L28.9452 2.8081L28.7871 2.39958C28.6422 2.0306 28.4973 1.66161 28.3524 1.29263C28.0362 0.501952 27.4565 0.0539002 26.6528 0.0275442C25.9545 0.00118826 25.2167 -0.0119897 24.4658 0.0143662C23.5962 0.0407222 22.9902 0.501952 22.6608 1.3717C22.5291 1.74068 22.371 2.10967 22.226 2.46547C22.1733 2.58407 22.1206 2.70268 22.0811 2.82128L19.6569 3.84916L19.2617 3.67785C18.8796 3.51971 18.4975 3.3484 18.1023 3.17708C17.3382 2.84763 16.6135 2.96624 16.0207 3.51971C15.5859 3.92823 15.1643 4.3631 14.7427 4.77162L14.5714 4.94293C13.9127 5.61501 13.7809 6.37933 14.1762 7.24908C14.3475 7.60489 14.4924 7.97387 14.6373 8.32968C14.69 8.46146 14.7427 8.58006 14.7954 8.69866L13.7941 11.1102C13.6755 11.1629 13.5438 11.2157 13.4252 11.2552C13.0695 11.4001 12.7006 11.5451 12.3317 11.6901C11.4622 12.0063 11.0142 12.6389 10.9879 13.5482C10.9747 14.1675 10.9747 14.8001 10.9879 15.4853C11.0142 16.421 11.4622 17.0667 12.3449 17.383C12.7138 17.5147 13.0827 17.6729 13.4384 17.8178C13.557 17.8705 13.6887 17.9233 13.8073 17.9628L14.8086 20.3744L14.6373 20.7961C14.4792 21.1782 14.3079 21.5867 14.1367 21.9821C13.8205 22.72 13.939 23.4053 14.466 23.9851C14.9535 24.5254 15.4937 25.0394 15.968 25.5006C16.6135 26.1331 17.3777 26.2517 18.234 25.8696C18.5898 25.6983 18.9587 25.5533 19.3144 25.3952C19.4461 25.3425 19.5647 25.2897 19.6833 25.237L22.0943 26.2386C22.147 26.3572 22.1997 26.4889 22.2524 26.6075C22.3841 26.937 22.5291 27.2664 22.6476 27.6091C22.9507 28.492 23.5567 28.9796 24.4526 29.0587C24.5185 29.6385 24.5053 30.7586 24.4262 31.233H9.97339H9.86799C9.72307 31.233 9.57815 31.233 9.42005 31.233C8.11573 31.2726 7.06174 32.1818 6.85094 33.4469C6.79824 33.8027 6.78507 34.1585 6.78507 34.5012C6.78507 34.6329 6.78507 34.7647 6.77189 34.8965C6.77189 35.0546 6.77189 35.2128 6.77189 35.3709C6.77189 35.3841 6.77189 35.4104 6.77189 35.4236H6.37665C6.02093 35.4236 5.65203 35.4236 5.29631 35.4236C4.50581 35.4236 3.67579 35.4236 2.85895 35.4236C1.14622 35.45 0.0131749 36.5965 0 38.2701C0 41.6041 0 44.9381 0 48.1536C0 49.8272 1.17257 51 2.8326 51C5.876 51 9.10385 51 12.7138 51C14.4133 51 15.5727 49.8667 15.5727 48.1799C15.5859 45.4652 15.5859 42.6979 15.5727 40.0227V38.2437C15.5727 37.6243 15.4146 37.084 15.1116 36.636C14.5583 35.8321 13.7546 35.4236 12.7138 35.4104C11.8969 35.4104 11.0801 35.4104 10.2632 35.4104H8.84035C8.84035 35.2787 8.84035 35.1601 8.84035 35.0283C8.82718 34.6066 8.82718 34.1981 8.85353 33.8027C8.89305 33.381 9.27512 33.302 9.4464 33.2888C9.52544 33.2888 9.6045 33.2888 9.69672 33.2888H9.77577C14.5583 33.2888 19.3276 33.2888 24.11 33.2888C24.2154 33.2888 24.3077 33.2888 24.4131 33.302V35.4104H22.977C22.1865 35.4104 21.396 35.4104 20.6055 35.4104C19.736 35.4104 19.0377 35.674 18.4975 36.2275C17.9705 36.7678 17.6939 37.4662 17.6939 38.2964C17.6939 39.4561 17.6939 40.6157 17.6939 41.7754V43.2382C17.6939 43.7389 17.6939 44.2265 17.6939 44.7273C17.6939 45.8606 17.6939 47.0334 17.6939 48.1799C17.7071 49.8272 18.8664 50.9868 20.5133 50.9868C24.2418 51 27.5092 51 30.4999 50.9868C32.0809 50.9868 33.2666 49.8008 33.2798 48.2326C33.2929 45.3203 33.2929 42.3552 33.2798 39.4956V38.1515C33.2798 37.5585 33.1085 37.0313 32.7659 36.5569C32.2126 35.7926 31.4089 35.4104 30.3813 35.3973C29.828 35.3973 29.2614 35.3973 28.7081 35.3973C28.102 35.3973 27.4828 35.3973 26.8768 35.3973C26.7714 35.3973 26.6528 35.3841 26.5342 35.3841C26.5342 35.305 26.5342 35.2259 26.5342 35.1469C26.5342 34.857 26.5342 34.5934 26.5342 34.3167C26.5342 34.1849 26.5342 34.0531 26.5342 33.9345C26.5211 33.7105 26.5211 33.4865 26.5606 33.2756H40.4996C40.5918 33.2756 40.6841 33.2756 40.7763 33.2756C40.9871 33.2756 41.1979 33.2888 41.4087 33.2624C41.6195 33.2493 41.8171 33.302 41.9488 33.4337C42.0938 33.5655 42.1728 33.7764 42.1728 34.0399C42.1728 34.2112 42.1728 34.3957 42.1728 34.5671C42.1728 34.7911 42.1728 35.0019 42.1728 35.226C42.1728 35.2787 42.1596 35.3314 42.1465 35.3841H40.7104C39.9067 35.3841 39.1031 35.3841 38.2862 35.3841C37.14 35.3841 36.2836 35.8717 35.7435 36.8205C35.4405 37.3608 35.4009 37.9406 35.4009 38.4018V41.9599C35.4009 43.9498 35.4009 45.9397 35.4009 47.9295C35.4009 48.1536 35.4141 48.3776 35.4405 48.6016C35.6249 49.9589 36.7448 50.9605 38.1018 50.9605C39.7618 50.9736 41.4219 50.9736 43.0819 50.9736C44.821 50.9736 46.5601 50.9736 48.2728 50.9605C49.2741 50.9605 50.0909 50.4729 50.6311 49.5636C50.8682 49.1683 50.9736 48.6939 50.9736 48.1404C51 45.6893 51 43.1986 51 40.7212ZM11.8706 37.5057H12.4766H12.5293C12.6084 37.5057 12.6874 37.5057 12.7533 37.5057C13.2408 37.5453 13.4384 37.7298 13.4779 38.2174C13.4911 38.2964 13.4911 38.3887 13.4779 38.4809V38.5468C13.4779 41.6568 13.4779 44.7668 13.4779 47.89C13.4779 48.0481 13.4779 48.2063 13.4516 48.3512C13.3989 48.6939 13.1881 48.8915 12.8323 48.9179C12.7533 48.9311 12.6611 48.9179 12.5688 48.9179C12.5293 48.9179 12.4898 48.9179 12.4634 48.9179H4.95376H3.03022H2.92483C2.27926 48.9179 2.06846 48.6939 2.05528 48.0745C2.05528 47.7319 2.05528 47.3892 2.05528 47.0466V38.4941C2.05528 38.4546 2.05528 38.4282 2.05528 38.3887C2.05528 38.2964 2.05528 38.2042 2.06846 38.1119C2.10798 37.7825 2.29243 37.5716 2.6218 37.5189C2.74038 37.4926 2.87213 37.4926 3.03022 37.4926C5.99458 37.5057 8.93258 37.5057 11.8706 37.5057ZM30.1705 37.4926C30.5921 37.4926 30.8556 37.5585 31.0005 37.7166C31.1586 37.8747 31.2245 38.1383 31.2245 38.5732C31.2113 40.8134 31.2113 43.08 31.2113 45.2808C31.2113 46.1373 31.2113 47.0071 31.2113 47.8636V47.9559C31.2113 48.0218 31.2113 48.0877 31.2113 48.1536C31.185 48.707 30.961 48.9311 30.4208 48.9311C29.3932 48.9311 28.3655 48.9311 27.3379 48.9311H25.4802C25.0191 48.9311 24.558 48.9311 24.0969 48.9311C22.977 48.9311 21.8176 48.9179 20.6846 48.9442C20.3816 48.9442 20.1576 48.8783 20.0127 48.7334C19.8546 48.5753 19.7755 48.3381 19.7887 48.0218C19.8019 45.8606 19.8019 43.673 19.8019 41.5514C19.8019 40.5103 19.8019 39.4824 19.8019 38.4414C19.8019 38.2569 19.815 38.1251 19.8414 38.0065C19.9073 37.7429 20.0654 37.598 20.3289 37.5585C20.4738 37.5321 20.6319 37.5189 20.8427 37.5189C21.1193 37.5189 21.396 37.5189 21.6727 37.5189C22.3841 37.5189 23.0956 37.5189 23.8202 37.5189C25.8887 37.5057 28.0493 37.5057 30.1705 37.4926ZM26.5079 26.7657C26.4815 26.8184 26.4552 26.8711 26.4288 26.937H24.6107C24.558 26.792 24.4921 26.6471 24.4262 26.5021C24.255 26.0936 24.0705 25.6719 23.9256 25.237C23.728 24.6704 23.3723 24.3409 22.7926 24.196C22.0152 23.9983 21.2511 23.682 20.5397 23.2603C20.0522 22.9704 19.5911 22.9441 19.0904 23.1944C18.682 23.3921 18.2736 23.5766 17.8388 23.7611C17.6807 23.827 17.5358 23.8929 17.3777 23.9719L16.0865 22.7069L16.1524 22.5487C16.2315 22.3511 16.3105 22.1797 16.3764 21.9952C16.4818 21.7449 16.5872 21.4813 16.7058 21.2309L16.9166 20.717C17.0747 20.3612 17.0483 20.0054 16.877 19.6891C16.3764 18.8325 16.0075 17.9233 15.744 16.9744C15.6386 16.6055 15.3883 16.3419 15.0062 16.1969C14.5714 16.0388 14.1367 15.8675 13.7019 15.7093L13.4779 15.6303C13.3593 15.5907 13.2539 15.538 13.1354 15.4853L13.0827 15.459V13.6404L13.3725 13.5218C13.6755 13.39 13.9917 13.2714 14.2948 13.1396C14.387 13.1001 14.4792 13.0738 14.5583 13.0342C15.5464 12.6521 15.5859 12.6125 15.9153 11.5451L15.968 11.4001C16.1656 10.7676 16.4686 10.1614 16.798 9.54205C17.0615 9.02811 17.0878 8.58006 16.8375 8.10565C16.6399 7.69713 16.4554 7.28862 16.271 6.85374C16.2051 6.70878 16.1392 6.55065 16.0734 6.40569C16.1129 6.35298 16.1524 6.31345 16.2051 6.27391C16.3632 6.1026 16.5213 5.91811 16.6926 5.75997C16.8507 5.58866 17.022 5.43052 17.2064 5.25921C17.2591 5.20649 17.2986 5.16696 17.3513 5.11425L17.549 5.19332C17.7993 5.29874 18.0496 5.40416 18.2867 5.50959L18.5107 5.60183C18.7742 5.70726 19.0245 5.82586 19.288 5.93128C19.6701 6.1026 20.0522 6.08942 20.4079 5.87857C21.2247 5.39099 22.1075 5.03518 23.0429 4.7848C23.4381 4.67937 23.7148 4.41581 23.8729 4.02047C24.0046 3.65149 24.1496 3.28251 24.2945 2.9267L24.4394 2.55772C24.4789 2.43912 24.5316 2.33369 24.5712 2.21509L24.5975 2.13602C25.0323 2.07013 25.4671 2.08331 25.915 2.08331C26.0731 2.08331 26.2312 2.08331 26.4025 2.08331L27.0217 3.61196C27.048 3.66467 27.0612 3.71738 27.0876 3.77009C27.1271 3.86234 27.1666 3.95458 27.2061 4.06001C27.3379 4.42899 27.6146 4.67937 28.0098 4.7848C28.9452 5.022 29.828 5.39099 30.6448 5.87857C31.0137 6.08942 31.4089 6.1026 31.8174 5.91811C32.2653 5.70726 32.7132 5.50959 33.1875 5.29874C33.3456 5.23285 33.5169 5.15378 33.675 5.07471L34.9266 6.41887C34.8739 6.55065 34.8212 6.66925 34.7685 6.80103C34.6104 7.18319 34.4392 7.59171 34.2547 7.97387C33.9517 8.58006 33.978 9.13353 34.3338 9.70019C34.7158 10.3064 35.0189 11.0312 35.2033 11.8218C35.3482 12.4149 35.6776 12.7707 36.2441 12.9551C36.6657 13.0869 37.061 13.2582 37.4957 13.4164C37.6407 13.4691 37.7856 13.535 37.9437 13.5877V15.4194C37.7988 15.4721 37.667 15.538 37.5221 15.5907C37.1005 15.7621 36.6657 15.9466 36.2178 16.1047C35.6644 16.3024 35.3482 16.6582 35.2165 17.2116C35.032 18.0023 34.7158 18.7535 34.2811 19.4651C33.978 19.9658 33.9649 20.4402 34.2152 20.9542C34.4128 21.3495 34.5841 21.7449 34.7685 22.1797C34.8344 22.3247 34.9003 22.4828 34.9662 22.641L33.7145 23.9324H33.7014C33.6091 23.9061 33.5433 23.8797 33.4642 23.8533L33.3325 23.8006C32.8318 23.5898 32.3048 23.3658 31.791 23.1417C31.3826 22.9572 31.0005 22.9704 30.6711 23.1681C29.8675 23.6425 28.9584 24.0247 27.9966 24.275C27.6014 24.3805 27.3379 24.6308 27.1798 25.0525C27.0217 25.4874 26.8504 25.9355 26.6792 26.3572L26.5079 26.7657ZM48.9184 48.3117C48.8788 48.6411 48.6549 48.8783 48.3255 48.9179C48.2333 48.9311 48.1279 48.9311 48.0225 48.9311C47.9829 48.9311 47.9434 48.9311 47.9039 48.9311H38.5234H38.4312C38.3653 48.9311 38.2994 48.9311 38.2335 48.9311C37.7856 48.9047 37.5616 48.707 37.5089 48.259C37.4957 48.1667 37.4957 48.0613 37.4957 47.9559V47.89C37.4957 47.0071 37.4957 46.111 37.4957 45.228C37.4957 43.0537 37.4957 40.8134 37.4826 38.5995C37.4826 38.1515 37.5484 37.8747 37.7065 37.7166C37.8646 37.5585 38.1281 37.4926 38.5629 37.4926C40.7236 37.5057 42.9238 37.5057 45.0581 37.5057C45.9935 37.5057 46.929 37.5057 47.8512 37.5057C48.7603 37.5057 48.9052 37.6507 48.9052 38.56V41.8149V47.9559C48.9052 47.9954 48.9052 48.0218 48.9052 48.0613C48.9315 48.1404 48.9315 48.2326 48.9184 48.3117ZM34.123 14.6024C34.1493 9.84515 30.3154 5.94446 25.5856 5.90493C23.28 5.87857 21.1062 6.7615 19.4593 8.39557C17.7993 10.0296 16.8902 12.1908 16.877 14.4838C16.8639 16.7899 17.7729 18.9775 19.4198 20.6247C21.0403 22.2456 23.1878 23.1417 25.4802 23.1417C25.5066 23.1417 25.5329 23.1417 25.5461 23.1417C27.8122 23.1417 29.9597 22.2588 31.5802 20.6511C33.2007 19.0434 34.1098 16.8954 34.123 14.6024ZM25.4934 21.0728H25.4802C23.7412 21.0728 22.1075 20.4007 20.8822 19.162C19.6438 17.9364 18.9718 16.2892 18.9718 14.5497C18.9718 10.9389 21.8967 8.00023 25.4934 7.97387C25.5066 7.97387 25.5066 7.97387 25.5198 7.97387C27.2588 7.97387 28.8925 8.65913 30.131 9.89786C31.3826 11.1498 32.0545 12.8102 32.0413 14.5629C32.0282 16.3155 31.3299 17.9496 30.0783 19.1883C28.853 20.4271 27.2193 21.0991 25.4934 21.0728ZM29.2087 10.8071C28.2206 9.81879 26.8899 9.27849 25.4802 9.27849C25.4671 9.27849 25.4539 9.27849 25.4539 9.27849C22.5818 9.29167 20.2498 11.6769 20.263 14.576C20.263 15.9729 20.8163 17.2775 21.8044 18.2527C22.7926 19.2279 24.0969 19.7682 25.4802 19.7682C25.4934 19.7682 25.4934 19.7682 25.5066 19.7682C26.9295 19.7682 28.2601 19.2147 29.2351 18.2132C30.2232 17.2248 30.7502 15.8938 30.7502 14.4574C30.7502 13.1001 30.1968 11.7955 29.2087 10.8071ZM25.5198 17.6992C24.6634 17.6992 23.8597 17.3698 23.2669 16.7768C22.674 16.1838 22.3446 15.3799 22.3446 14.5233C22.3446 12.7838 23.7675 11.3738 25.5066 11.3606C26.363 11.3606 27.1666 11.6901 27.7595 12.2831C28.3655 12.8893 28.6817 13.6799 28.6817 14.5365C28.6686 16.2892 27.2457 17.6992 25.5198 17.6992ZM24.9532 43.4227C25.6252 42.408 26.2971 41.4196 26.9558 40.4181L27.0085 40.339C27.0876 40.2204 27.1666 40.1018 27.2588 39.9964C27.6277 39.5879 28.1943 39.5088 28.629 39.8251C29.0375 40.115 29.1824 40.6553 28.9584 41.1297C28.9057 41.2483 28.8398 41.3405 28.774 41.4328L28.7344 41.4855C27.72 43.0141 26.6923 44.556 25.6647 46.0846L25.6252 46.1373C25.5725 46.2164 25.5198 46.3086 25.4407 46.3877C25.2299 46.6249 24.9664 46.7567 24.6897 46.783C24.6766 46.783 24.6634 46.783 24.637 46.783C24.3999 46.783 24.1627 46.6908 23.9783 46.5195C23.3854 45.966 22.7794 45.373 22.1865 44.7273C21.8176 44.3319 21.8308 43.7389 22.2392 43.3436C22.6345 42.9483 23.1878 42.9219 23.6226 43.2645C23.807 43.4095 23.9651 43.5808 24.1232 43.7389C24.2023 43.818 24.2681 43.8839 24.3472 43.963C24.3999 44.0025 24.4394 44.0552 24.4921 44.1079L24.9532 43.4227ZM46.6655 41.1297C46.6128 41.2483 46.5469 41.3405 46.481 41.4328L46.4415 41.4855C45.427 43.001 44.4126 44.5296 43.4113 46.0451L43.3717 46.0978C43.3322 46.1637 43.2795 46.2296 43.2268 46.3086C43.0028 46.5986 42.7262 46.7567 42.4363 46.783C42.41 46.783 42.3968 46.783 42.3704 46.783C42.1069 46.783 41.8434 46.6644 41.6195 46.4536C41.0793 45.9397 40.526 45.3862 39.9726 44.8063C39.5378 44.3583 39.5378 43.7653 39.9594 43.3436C40.3679 42.9351 40.9739 42.9219 41.4219 43.3436C41.6458 43.5413 41.8434 43.7521 42.0674 43.9761C42.1069 44.0157 42.1596 44.0684 42.1992 44.1079L42.6339 43.4622C43.3322 42.4211 44.0041 41.4064 44.6761 40.4049L44.7288 40.3258C44.7946 40.2204 44.8605 40.115 44.9527 40.0227C45.2953 39.6406 45.8486 39.5615 46.2834 39.8251C46.7313 40.0755 46.8894 40.6421 46.6655 41.1297Z" fill="#22345B"/>
</svg>
