<svg width="21" height="16" viewBox="0 0 21 16" fill="none" xmlns="http://www.w3.org/2000/svg">
<path d="M20.0727 16H0.727273C0.290909 16 0 15.7091 0 15.2727C0 14.8364 0.290909 14.5455 0.727273 14.5455H20.0727C20.5091 14.5455 20.8 14.8364 20.8 15.2727C20.8 15.7091 20.5091 16 20.0727 16ZM0 8C0 7.56364 0.290909 7.27273 0.727273 7.27273H20.0727C20.5091 7.27273 20.8 7.56364 20.8 8C20.8 8.43636 20.5091 8.72727 20.0727 8.72727H0.727273C0.290909 8.72727 0 8.43636 0 8ZM0 0.727273C0 0.290909 0.290909 0 0.727273 0H20.0727C20.5091 0 20.8 0.290909 20.8 0.727273C20.8 1.16364 20.5091 1.45455 20.0727 1.45455H0.727273C0.290909 1.45455 0 1.16364 0 0.727273Z" fill="#22345B"/>
</svg>
