<svg width="20" height="15" viewBox="0 0 20 15" fill="none" xmlns="http://www.w3.org/2000/svg">
<g clip-path="url(#clip0_88_320)">
<path d="M19.2188 8.86189C19.6484 8.86189 20 8.51662 20 8.09463V3.06905C20 1.37724 18.5977 0 16.875 0H3.125C1.40234 0 0 1.37724 0 3.06905V11.9309C0 13.6228 1.40234 15 3.125 15H16.875C18.5977 15 20 13.6228 20 11.9309C20 11.509 19.6484 11.1637 19.2188 11.1637C18.7891 11.1637 18.4375 11.509 18.4375 11.9309C18.4375 12.7788 17.7383 13.4655 16.875 13.4655H3.125C2.26172 13.4655 1.5625 12.7788 1.5625 11.9309V3.23018L8.35156 7.3734C8.85938 7.68414 9.42969 7.84143 10 7.84143C10.5703 7.84143 11.1406 7.68414 11.6484 7.3734L18.4375 3.23018V8.09463C18.4375 8.51662 18.7891 8.86189 19.2188 8.86189ZM10.8242 6.07289C10.3164 6.38363 9.68359 6.38363 9.17578 6.07289L2.21484 1.82225C2.47266 1.64194 2.78516 1.53453 3.125 1.53453H16.875C17.2148 1.53453 17.5273 1.64194 17.7852 1.82225L10.8242 6.07289Z" fill="white"/>
</g>
<defs>
<clipPath id="clip0_88_320">
<rect width="20" height="15" fill="white"/>
</clipPath>
</defs>
</svg>
