<svg width="19" height="18" viewBox="0 0 19 18" fill="none" xmlns="http://www.w3.org/2000/svg">
<path d="M14.1163 18.0001C12.8552 17.9518 11.5781 17.6298 10.3733 17.0502C6.40542 15.1584 3.49779 12.2121 1.73876 8.15486C1.2488 7.0198 0.967672 5.82034 0.9998 4.56452C1.03193 3.24431 1.44157 2.069 2.42952 1.14324C2.55803 1.02248 2.67851 0.901733 2.799 0.772932C3.60221 -0.112578 5.08815 -0.193079 5.98775 0.708531C6.92751 1.64234 7.90743 2.5359 8.91145 3.40531C9.88333 4.24252 9.96365 5.65934 8.96767 6.57705C8.69458 6.83465 8.45361 7.12445 8.16446 7.36595C7.89137 7.59941 7.83514 7.89726 7.93153 8.20316C8.39739 9.63608 9.28092 10.6745 10.7749 11.1173C11.056 11.1978 11.289 11.1414 11.4898 10.916C11.7468 10.6262 12.0359 10.3686 12.309 10.0869C13.1042 9.26578 14.5982 9.23358 15.4094 10.0869C16.3412 11.0609 17.305 12.0189 18.3171 12.9205C19.1926 13.6933 19.2327 15.2711 18.3412 16.0279C18.1805 16.1647 18.0279 16.3257 17.8833 16.4787C16.9034 17.5735 15.6343 17.976 14.1163 18.0001ZM7.84317 5.16828C7.80301 5.09583 7.77892 5.03948 7.74679 5.00728C6.69458 3.94467 5.6504 2.89011 4.59819 1.83554C4.47771 1.71479 4.36526 1.72284 4.25281 1.82749C4.07611 1.99655 3.91546 2.17365 3.73876 2.33465C2.93554 3.06721 2.71868 4.00907 2.79096 5.03948C2.84719 5.87669 3.06406 6.67365 3.38534 7.44646C4.65442 10.5377 6.74277 12.9286 9.57811 14.6593C10.8392 15.4321 12.1805 16.0037 13.6745 16.1808C15.1845 16.366 16.2849 15.73 17.1524 14.5708C17.1845 14.5305 17.1845 14.4742 17.2086 14.4259C17.1765 14.45 17.1524 14.4742 17.1203 14.4983C16.0279 13.4035 14.9355 12.3087 13.811 11.1817C13.4978 11.4957 13.1363 11.8499 12.7829 12.2121C12.4777 12.518 12.1243 12.6871 11.6986 12.7837C11.2247 12.8883 10.7669 12.832 10.309 12.7193C9.04799 12.4134 8.06004 11.6808 7.25683 10.6906C6.63032 9.91783 6.17249 9.06452 6.1002 8.05021C6.04398 7.31765 6.22068 6.67365 6.79096 6.16649C7.05602 5.93304 7.30502 5.69959 7.56205 5.45808C7.66647 5.36148 7.74679 5.26488 7.84317 5.16828ZM17.2568 7.1325C17.8271 7.1325 18.3974 7.1325 18.9596 7.1325C18.9998 3.04306 15.4175 -0.128678 11.8271 0.00817303C11.8271 0.563629 11.8271 1.12714 11.8271 1.70674C15.0882 2.069 16.8793 3.88832 17.2568 7.1325ZM14.4938 7.15665C14.7829 7.15665 15.0721 7.15665 15.3532 7.15665C15.4255 5.07168 13.4496 3.46166 11.8271 3.62266C11.8271 4.18617 11.8271 4.75773 11.8271 5.33733C12.8713 5.49028 13.4737 6.07794 13.6263 7.1647C13.9315 7.15665 14.2127 7.15665 14.4938 7.15665Z" fill="white"/>
</svg>
