<svg width="55" height="40" viewBox="0 0 55 40" fill="none" xmlns="http://www.w3.org/2000/svg">
<path d="M54.1407 37.1165C54.1231 37.011 54.1055 36.9231 54.1055 36.8176C53.7012 33.6176 53.2088 30.7869 52.611 28.1671C52.2418 26.5671 51.7671 24.6682 50.9583 22.8924C50.1495 21.1342 48.8309 19.921 47.0023 19.3056C49.288 17.4419 50.2374 14.998 49.833 11.9914C50.7649 11.4288 51.0286 10.743 50.7473 9.65294C50.5891 9.05515 50.3957 8.35185 50.1144 7.66614C49.0067 4.99363 47.0726 3.37606 44.3474 2.86617C43.9781 2.79584 43.6089 2.76068 43.2573 2.70793C43.1518 2.69035 43.0463 2.69035 42.9408 2.67277C41.8683 0.861791 40.2331 -0.0173238 37.9122 0.00025853C31.0727 0.0178408 24.1277 0.0178408 17.4113 0.0178408C14.9146 0.0178408 12.4003 0.0178408 9.90363 0.0178408H9.62232C9.32342 0.0178408 9.02452 0.0178408 8.72562 0.0178408C7.70584 0.0354231 6.7564 0.31674 5.93003 0.826627C4.71685 1.58267 4.06631 2.53211 3.90807 3.76287C3.83774 4.39583 3.71466 5.04638 3.60917 5.67934C3.53884 6.04857 3.48609 6.43538 3.43334 6.80461C2.85313 10.6024 2.29049 14.4002 1.71028 18.1979C1.49929 19.5869 1.30589 20.9759 1.0949 22.365C0.760834 24.6331 0.409188 26.9715 0.0575421 29.2572C-0.153446 30.6286 0.215783 31.8418 1.16523 32.8792C2.13225 33.9341 3.36302 34.4792 4.80476 34.4792C9.99154 34.4792 15.1783 34.4792 20.3651 34.4792H26.2728C26.3079 34.6198 26.3431 34.7429 26.3958 34.866C26.9057 36.3253 28.2068 37.2396 29.7541 37.2396C31.6529 37.222 33.587 37.1868 35.4507 37.1517C36.2947 37.1341 37.1386 37.1165 38.0002 37.1165C38.1584 37.1165 38.3166 37.1165 38.4749 37.1165C38.4749 37.1517 38.4749 37.2044 38.4749 37.2396C38.4925 37.5561 38.5276 37.855 38.5628 38.1539C38.721 39.2088 39.4419 39.8945 40.4968 39.9824C40.6199 40 40.743 40 40.8485 40H40.9188C44.5408 40 48.1627 40 51.8023 40H51.8902C51.9253 40 51.9605 40 51.9957 40C52.066 40 52.1539 40 52.2242 40C53.3671 39.9121 54.211 38.9802 54.1935 37.8374C54.211 37.5912 54.1759 37.3451 54.1407 37.1165ZM40.3034 36.9055C41.4639 36.4835 42.2199 35.6396 42.5891 34.3737C42.8001 33.6352 43.0287 32.8967 43.2573 32.1583C43.3803 31.7363 43.5034 31.3319 43.6265 30.91L43.6441 30.8396C43.6792 30.7165 43.732 30.5583 43.7496 30.4001C43.8023 29.9957 43.5386 29.6089 43.1342 29.4682C42.7474 29.3451 42.3782 29.4858 42.1496 29.8198C42.0441 29.9781 41.9913 30.1539 41.9562 30.3121L41.9386 30.3825C41.7979 30.8396 41.6749 31.2792 41.5342 31.7363C41.3232 32.4572 41.0946 33.1956 40.8837 33.9165C40.5848 34.866 40.0045 35.3055 39.0375 35.3231C36.3298 35.3759 33.1826 35.411 30.0881 35.4462C29.7013 35.4462 29.3672 35.411 29.1035 35.3231C28.453 35.1121 28.0134 34.4264 28.031 33.6704C28.0486 32.8792 28.5409 32.2286 29.2442 32.0528C29.4903 32.0001 29.7541 31.9649 30.0705 31.9473C30.9848 31.9297 31.8815 31.9297 32.7958 31.9121C33.5167 31.9121 34.2375 31.8946 34.9408 31.8946C35.2749 31.8946 35.6265 31.877 35.943 31.8594C36.2243 31.8418 36.5057 31.8418 36.787 31.8418C37.8419 31.8242 37.9826 31.7187 38.2639 30.7341C38.4749 30.0133 38.6859 29.31 38.8793 28.5891C39.1254 27.7627 39.354 26.9539 39.6001 26.1276L39.6705 25.9166C39.8463 25.2836 40.0397 24.6331 40.2507 24.0001C40.8485 22.1364 42.5716 20.8177 44.5584 20.7298C46.0001 20.6595 47.1781 21.0463 48.1627 21.8726C48.655 22.2946 49.0594 22.8397 49.3759 23.543C50.1319 25.2309 50.5891 26.9891 50.9231 28.4836C51.5034 31.033 51.9781 33.7934 52.3825 36.9407C52.4001 37.0462 52.4176 37.1517 52.4352 37.2396C52.4704 37.433 52.488 37.6264 52.5056 37.8022C52.5056 37.978 52.4704 38.1539 52.1539 38.189C52.0836 38.189 51.9957 38.189 51.9078 38.189C51.8726 38.189 51.8374 38.189 51.8023 38.189H41.1298C41.0946 38.189 41.0595 38.189 41.0067 38.189C40.9188 38.189 40.8309 38.189 40.7606 38.189C40.4617 38.1539 40.4441 38.1187 40.4089 37.8901C40.3562 37.6088 40.3386 37.3275 40.321 37.0286C40.321 36.9758 40.321 36.9231 40.3034 36.8703C40.2683 36.9055 40.2859 36.9055 40.3034 36.9055ZM17.4113 19.9913C17.4816 18.0924 17.5871 16.1584 17.675 14.2947C17.7278 13.2222 17.7805 12.1496 17.8333 11.0595H29.3145L29.7716 19.9913C27.9958 20.0617 19.2398 20.0617 17.4113 19.9913ZM31.5475 20.0265C31.354 16.8265 31.2134 13.732 31.0903 11.0595C31.6705 11.0068 32.743 10.9892 33.376 11.0419C33.3233 11.1826 33.2354 11.3408 33.0947 11.4991C32.9716 11.6222 32.8485 11.7628 32.7255 11.8859C32.5496 12.0617 32.3562 12.2551 32.1804 12.4661C31.9343 12.7826 31.6529 13.1518 31.5299 13.5914C31.4068 13.9958 31.4595 14.365 31.6881 14.6112C31.9167 14.8749 32.2859 14.9804 32.743 14.8925C33.2354 14.8046 33.7452 14.7342 34.2551 14.6463L34.6595 14.576C35.2046 17.0903 36.5232 18.8837 38.6683 20.0089H31.5475V20.0265ZM32.7606 21.7847C32.9892 21.7847 33.2178 21.7847 33.4463 21.7847C33.9562 21.7847 34.4837 21.7847 34.9936 21.7847C35.2221 21.7847 35.4507 21.7847 35.6793 21.7847H39.4067C38.9672 22.4177 38.6507 23.0507 38.4573 23.7188C38.0002 25.2836 37.5254 26.8836 37.0859 28.4308L36.6463 29.8902C36.6287 29.9429 36.6112 30.0133 36.5936 30.0836C35.5562 30.1539 34.5189 30.1715 33.4288 30.1715C32.9892 30.1715 32.5321 30.1715 32.0749 30.1891C31.8991 27.5166 31.7936 24.9144 31.6529 22.1364L31.6354 21.7847C32.0222 21.7847 32.3914 21.7847 32.7606 21.7847ZM40.3738 18.8485C38.2815 18.1452 36.9628 16.6155 36.4529 14.2947L48.0748 12.3782C48.3913 14.2771 47.899 15.8947 46.5627 17.3188C44.8573 19.1298 42.765 19.6573 40.3738 18.8485ZM36.6287 12.4837C35.82 12.6244 35.0112 12.7474 34.2024 12.8881C34.2727 12.8178 34.3255 12.7474 34.3958 12.6771C34.9057 12.0969 35.187 11.3936 35.2222 10.5496C35.2573 9.74086 35.4507 8.91449 35.7672 8.1057C36.365 6.57604 37.4199 5.55627 38.932 5.04638C40.1452 4.64199 41.288 4.431 42.3606 4.431C42.8001 4.431 43.2397 4.46616 43.6792 4.53649C46.1408 4.9233 47.7583 6.29472 48.655 8.72108C48.8484 9.24855 48.9715 9.82877 49.0418 10.2507C49.0594 10.3387 49.0594 10.3914 49.0594 10.409C49.0243 10.4266 48.9715 10.4441 48.866 10.4617C47.6177 10.6727 46.3693 10.8837 45.1386 11.0947L44.2067 11.2529C41.6924 11.6397 39.1606 12.0617 36.6287 12.4837ZM40.743 2.77826C38.5804 3.00683 36.8925 3.79804 35.5562 5.18704C34.5189 6.27714 33.8683 7.6134 33.6222 9.16064C33.6222 9.17822 33.6222 9.21339 33.6046 9.23097H31.02C30.9145 7.85955 30.8617 6.47055 30.7914 5.13429C30.7387 4.02661 30.6859 2.90134 30.6156 1.77607C31.2134 1.77607 31.8288 1.77607 32.4266 1.77607C34.4134 1.77607 36.4705 1.77607 38.4749 1.79365C39.3892 1.79365 40.1804 2.12772 40.8309 2.77826C40.7957 2.77826 40.7606 2.77826 40.743 2.77826ZM17.3234 21.8199H29.8771L30.2991 30.2242C30.2639 30.2242 30.2288 30.2242 30.176 30.2242C30.1233 30.2242 30.0881 30.2242 30.0354 30.2067C28.3299 30.1539 26.9585 31.0682 26.3958 32.6506C25.0947 32.7209 18.4662 32.7561 16.8135 32.6858C16.8135 31.1561 17.1124 24.2111 17.3234 21.8199ZM17.9387 9.24855C17.9915 7.68373 18.0794 6.1189 18.1497 4.58924C18.2025 3.67496 18.2552 2.72552 18.2904 1.79365H28.8398L29.2266 9.23097C25.4816 9.24855 21.7014 9.24855 17.9387 9.24855ZM4.87509 9.21339L4.98059 8.54526C5.10366 7.68373 5.24432 6.82219 5.3674 5.96066C5.40256 5.71451 5.43773 5.48594 5.49047 5.25737C5.5608 4.83539 5.63113 4.37825 5.68388 3.93869C5.75421 3.3409 6.07069 2.84859 6.68607 2.42662C7.30145 2.00464 7.952 1.79365 8.65529 1.77607C10.7124 1.75849 12.8223 1.75849 14.8443 1.77607H16.5673L16.1981 9.21339H4.87509ZM3.23994 19.9913L4.59378 11.0419H16.0574C16.0926 11.5694 16.0399 12.0969 16.0047 12.6419C15.9695 13.0463 15.9344 13.4507 15.9344 13.8727C15.9344 14.6815 15.8816 15.4903 15.8289 16.2991C15.8113 16.5628 15.7937 16.8265 15.7937 17.0903C15.7585 17.8287 15.7058 18.5672 15.6706 19.3232L15.6355 20.0089H3.23994V19.9913ZM15.53 21.8199L14.9849 32.7033C14.9498 32.7033 14.9146 32.7033 14.8794 32.7033H12.4355C9.90363 32.7033 7.30145 32.7033 4.73444 32.7033C3.64433 32.7033 2.7828 32.211 2.16742 31.2792C1.81577 30.7517 1.71028 30.1715 1.79819 29.5209C2.06192 27.833 2.30808 26.11 2.55423 24.4572C2.67731 23.6309 2.80038 22.8045 2.92346 21.9781C2.92346 21.9254 2.94104 21.8902 2.95862 21.8375H15.53V21.8199Z" fill="#22345B"/>
</svg>
