<svg width="33" height="40" viewBox="0 0 33 40" fill="none" xmlns="http://www.w3.org/2000/svg">
<path d="M13.5737 15.5412C15.7689 15.5606 17.6727 16.3279 19.2365 17.8723C20.3535 18.9699 21.082 20.3007 21.4026 21.8353C21.49 22.253 21.5094 22.6707 21.5677 23.0981C21.5774 23.1661 21.5871 23.2341 21.5968 23.3409C24.2485 22.5833 26.7448 22.8844 29.0372 24.4385C30.6301 25.5167 31.718 26.9834 32.3299 28.7997C33.5441 32.4616 32.1357 36.4246 28.9692 38.5615C25.8124 40.679 21.4123 40.543 18.2846 37.5902C12.2041 37.5902 6.12365 37.5902 0.0237435 37.5902C0.0140302 37.4834 0.00431699 37.3862 0.00431699 37.2988C0.00431699 32.7239 -0.00539624 28.1489 0.00431699 23.574C0.0140302 21.2817 0.849368 19.3196 2.51033 17.7267C3.66621 16.6291 5.03577 15.9394 6.60931 15.6674C7.15326 15.5703 7.68748 15.5315 8.24114 15.5412H13.5737ZM11.8739 19.9995C11.8739 23.1272 11.8739 26.2452 11.8739 29.3534C11.4562 29.4214 9.98952 29.4117 9.70784 29.334C9.70784 26.2063 9.70784 23.0786 9.70784 19.9607C9.17361 19.2031 8.65881 18.4649 8.12458 17.7169C7.80404 17.7461 7.50293 17.7558 7.20182 17.7946C6.99784 17.8238 6.79387 17.8626 6.5996 17.9112C4.23929 18.4746 2.21893 20.6212 2.19951 23.5157C2.18008 27.3913 2.18979 31.2572 2.19951 35.1328C2.19951 35.2299 2.21893 35.3173 2.21893 35.4047C3.05427 35.463 16.3614 35.4436 16.6431 35.3756C15.6815 33.4718 15.4484 31.4709 15.9632 29.402C16.478 27.333 17.663 25.7012 19.3725 24.4773C19.7902 19.8344 16.138 17.6004 13.4474 17.7655C12.9423 18.4843 12.4178 19.2322 11.8739 19.9995ZM17.9058 31.4806C17.867 34.8414 20.6352 37.8136 24.2388 37.8136C27.6967 37.8136 30.5719 35.0453 30.5719 31.4709C30.5719 27.8187 27.5608 25.1281 24.2291 25.1378C20.7518 25.1378 17.867 28.013 17.9058 31.4806ZM4.80265 25.2738C5.54086 25.3321 6.92985 25.303 7.17268 25.235C7.22125 24.5162 7.20182 23.1466 7.13383 22.8941C6.35677 22.8941 5.57 22.8941 4.79294 22.8941C4.73466 23.2341 4.73466 25.0213 4.80265 25.2738ZM28.2504 30.1207C28.0076 29.8779 27.755 29.6254 27.5025 29.3825C27.2402 29.13 27.0168 28.8483 26.7157 28.6346C25.5793 29.7711 24.4622 30.8881 23.3258 32.0245C22.7818 31.4903 22.2768 30.9755 21.8008 30.4995C21.286 31.0144 20.7809 31.5194 20.305 31.9954C21.3054 32.9958 22.335 34.0255 23.3646 35.0551C23.6269 34.8511 28.095 30.3636 28.2504 30.1207ZM10.8346 14.9584C6.70645 14.9584 3.35538 11.5976 3.35538 7.47919C3.35538 3.36078 6.71616 0 10.8346 0C14.953 0 18.3138 3.36078 18.3138 7.47919C18.3138 11.5976 14.9627 14.9584 10.8346 14.9584ZM10.8346 2.1272C7.88175 2.1272 5.49229 4.52637 5.49229 7.46948C5.49229 10.4126 7.89146 12.8118 10.8346 12.8118C13.7777 12.8118 16.1768 10.4126 16.1768 7.46948C16.1768 4.52637 13.7874 2.1272 10.8346 2.1272Z" fill="#22345B"/>
</svg>
