<svg width="44" height="40" viewBox="0 0 44 40" fill="none" xmlns="http://www.w3.org/2000/svg">
<path d="M8.86147 14.4068C10.1815 15.1693 11.5243 15.9431 12.9013 16.7397C17.7036 14.5206 22.5172 12.3016 27.3309 10.0825C27.6837 10.2304 28.0251 10.3556 28.3551 10.5036C29.1517 10.8563 29.9369 11.2319 30.7334 11.5846C31.0293 11.7212 31.2569 11.8919 31.3024 12.2674C31.2911 12.5974 31.0407 12.7909 30.7448 12.9616C29.641 13.5875 28.5485 14.2361 27.4447 14.862C24.6339 16.478 21.8231 18.0939 19.0236 19.7098C18.8985 19.7781 18.7733 19.8691 18.5798 19.9829C18.8074 20.1195 18.9781 20.2219 19.1488 20.3243C23.0179 22.5548 26.8985 24.7966 30.7676 27.027C31.0293 27.175 31.2455 27.3457 31.2797 27.6984C31.2569 27.9602 31.1431 28.1991 30.8472 28.3357C29.7775 28.8137 28.7078 29.303 27.6381 29.7923C27.5585 29.8265 27.4561 29.8492 27.2967 29.8947C22.54 27.6984 17.7491 25.4908 12.9013 23.2489C11.5585 24.0228 10.2043 24.7966 8.83871 25.5932C8.96389 26.7767 8.70215 27.8464 8.00798 28.7795C7.43899 29.5647 6.67655 30.1223 5.73202 30.3954C3.8316 30.9644 1.80599 30.2248 0.713533 28.5405C-0.310649 26.9587 -0.242371 24.8535 1.04355 23.2945C2.09049 22.0199 4.17299 21.0071 6.71069 22.3385C7.25692 21.5647 7.81453 20.7909 8.38352 19.9943C7.83729 19.2091 7.30244 18.458 6.73345 17.6615C5.49305 18.3101 4.21851 18.4922 2.89845 17.9915C1.98807 17.6501 1.24838 17.0697 0.713533 16.2504C-0.333409 14.6344 -0.219611 12.5405 0.998028 11.0498C2.20429 9.57041 4.29817 9.00142 6.0279 9.68421C7.67797 10.3329 9.04355 11.9715 8.86147 14.4068ZM27.3992 11.5277C27.2626 11.5733 27.2057 11.596 27.1488 11.6188C21.732 14.1223 16.3152 16.6145 10.8985 19.1067C10.614 19.2432 10.3977 19.4367 10.227 19.6871C9.48736 20.7454 8.73629 21.7923 7.9966 22.8393C7.91695 22.9531 7.84867 23.0896 7.78039 23.2034C8.03074 23.5562 8.24696 23.8862 8.5087 24.2504C15.3821 20.2902 22.2327 16.3414 29.1744 12.3357C28.5144 12.0398 27.9568 11.7895 27.3992 11.5277ZM29.1858 27.6529C25.1232 25.3087 21.1744 23.0327 17.2256 20.7568C16.247 21.3257 15.3252 21.8606 14.3238 22.441C18.7391 24.478 23.0635 26.4808 27.3764 28.4723C27.9682 28.1991 28.5144 27.9488 29.1858 27.6529ZM4.49163 29.2461C6.09618 29.2916 7.57555 27.8919 7.57555 26.1394C7.57555 24.4666 6.10756 23.0327 4.46887 23.0327C3.00087 23.0327 1.36218 24.1821 1.3508 26.128C1.32804 28.1309 3.05777 29.303 4.49163 29.2461ZM4.43473 10.7425C3.01225 10.6743 1.33942 11.8578 1.3508 13.8492C1.36218 15.8748 3.06915 16.9559 4.45749 16.9559C5.95962 16.9559 7.58693 15.6472 7.58693 13.8606C7.57555 12.1422 6.1417 10.6743 4.43473 10.7425ZM7.78039 16.8307C8.24696 17.4794 8.70215 18.128 9.237 18.8905C9.48736 18.2191 10.0222 18.0825 10.4888 17.8549C10.7619 17.7183 11.0464 17.5932 11.4219 17.4111C10.3864 16.8193 9.45322 16.2845 8.49732 15.7269C8.24696 16.1252 8.03074 16.4666 7.78039 16.8307ZM29.311 38.0654C29.311 37.064 29.311 36.0512 29.311 35.0498C29.311 34.4922 29.0948 34.2646 28.5258 34.2304C26.5912 34.1166 24.7022 33.7525 22.8472 33.1835C22.2327 32.99 21.641 32.7511 21.0265 32.5235C21.3224 31.2717 21.6068 30.0882 21.8913 28.8706C21.6865 28.7681 21.5044 28.6657 21.311 28.5861C21.1175 28.495 20.9127 28.4154 20.6737 28.3016C20.5258 28.9047 20.3892 29.4623 20.264 30.0085C20.0592 30.8393 19.8544 31.6586 19.6609 32.4893C19.5243 33.0811 19.6381 33.3087 20.1958 33.5818C20.2413 33.6046 20.2982 33.6273 20.3551 33.6501C21.9255 34.3784 23.5869 34.8336 25.2825 35.1408C26.1588 35.3001 27.035 35.4139 27.9454 35.5619C27.9682 35.6643 28.0137 35.7895 28.0137 35.9146C28.0137 36.973 28.0023 38.0313 28.0023 39.101C28.0023 39.7383 28.2071 39.9659 28.833 40C28.9127 40 28.981 40 29.0606 40C30.5741 40 32.099 40 33.6125 40C33.7832 40 33.9539 40 34.1246 39.9659C34.5002 39.909 34.6936 39.7041 34.7505 39.3286C34.7619 39.2148 34.7505 39.101 34.7505 38.9872C34.7505 37.872 34.7505 36.7454 34.7505 35.6302C34.7505 35.4481 34.7505 35.2546 34.7505 35.0498C34.9212 34.9929 35.0578 34.9474 35.2057 34.9132C36.503 34.5946 37.732 34.1166 38.8814 33.4339C40.8159 32.2845 42.2612 30.7027 43.035 28.5633C43.6609 26.8222 43.7064 25.0469 43.3536 23.2489C42.9895 21.4168 42.0563 19.9147 40.6225 18.7198C39.4731 17.7525 38.1758 17.0583 36.7989 16.5121C35.4788 15.9886 34.136 15.522 32.816 15.0213C32.2583 14.8051 31.7121 14.5434 31.1431 14.293C30.7562 14.5661 30.301 14.6913 29.9369 15.101C30.4148 15.3514 30.8359 15.6245 31.2911 15.8065C32.5656 16.3186 33.8629 16.8193 35.1488 17.2973C36.5713 17.8208 37.971 18.4011 39.2228 19.2774C40.1445 19.9374 40.9297 20.7226 41.4418 21.7468C42.2726 23.3969 42.4205 25.1607 42.1019 26.9474C41.6808 29.3144 40.3039 31.0327 38.2896 32.2731C37.0492 33.0356 35.6837 33.4908 34.2726 33.7866C34.0563 33.8321 33.8401 33.9004 33.7263 33.9346C33.4077 34.2077 33.4077 34.4694 33.4077 34.7312C33.4077 35.8919 33.4077 37.0413 33.4077 38.202C33.4077 38.3499 33.3849 38.4979 33.3736 38.6572C32.0194 38.6572 30.6993 38.6572 29.3224 38.6572C29.311 38.3955 29.311 38.2248 29.311 38.0654ZM33.0094 11.5619C34.2839 11.5505 35.5471 11.7098 36.7647 12.0626C37.6865 12.3243 38.5969 12.6657 39.4845 13.0413C40.1445 13.3144 40.5201 13.0413 40.6566 12.4267C40.7249 12.1309 40.7932 11.835 40.8615 11.5391C41.2939 9.74111 41.7263 7.93172 42.1474 6.17923C42.0677 5.8037 41.8629 5.633 41.5443 5.50782C39.8259 4.81366 38.062 4.36984 36.2185 4.17639C35.7975 4.13087 35.365 4.07397 34.8871 4.01707C34.8871 3.6643 34.8871 3.34566 34.8871 3.02703C34.8871 2.26458 34.8985 1.51351 34.8871 0.751067C34.8757 0.295875 34.6936 0.102418 34.2498 0.0227596C34.1701 0 34.0677 0 33.9767 0C32.3494 0 30.7107 0 29.0834 0C28.4006 0 28.173 0.238976 28.173 0.933144C28.173 1.98009 28.173 3.01565 28.173 4.06259C28.173 4.21053 28.1502 4.35846 28.1389 4.5064C27.9795 4.55192 27.8544 4.59744 27.7292 4.63158C26.5684 4.95021 25.4646 5.37127 24.429 5.98577C22.3238 7.23755 20.833 8.97866 20.1616 11.3684C20.1161 11.5505 20.0137 11.7212 20.1389 11.9488C20.6396 11.7212 21.1289 11.4936 21.5727 11.2888C22.3579 9.3542 23.5528 7.98862 25.2598 7.0441C26.3295 6.45235 27.4561 6.03129 28.6509 5.76956C29.3565 5.61024 29.493 5.45092 29.5044 4.734C29.5044 3.80085 29.5044 2.87909 29.5044 1.94595C29.5044 1.76387 29.5044 1.58179 29.5044 1.39972C30.2669 1.2973 33.1687 1.32006 33.5898 1.43385C33.5898 1.53627 33.5898 1.65007 33.5898 1.76387C33.5898 2.69701 33.5784 3.61878 33.5898 4.55192C33.5898 5.10953 33.7946 5.30299 34.3295 5.33713C34.6936 5.35989 35.0464 5.40541 35.3992 5.42816C36.8785 5.5192 38.3238 5.83784 39.7349 6.27027C40.0535 6.37269 40.3949 6.42959 40.6566 6.66856C40.2583 8.31863 39.86 9.94595 39.4618 11.596C36.8103 10.5263 34.1588 10.0142 31.2342 10.3442C31.8031 10.6856 32.2128 11.0043 32.4518 11.5733C32.668 11.5619 32.8387 11.5619 33.0094 11.5619ZM22.6879 20.1309C23.4618 20.8023 24.3266 21.3485 25.237 21.8265C26.614 22.5434 28.0933 23.0327 29.5613 23.5334C30.449 23.8407 31.3252 24.1935 32.1901 24.5804C32.5315 24.7283 32.8387 24.9673 33.1232 25.2176C33.8401 25.8549 33.6922 26.8222 32.9297 27.2091C32.816 27.266 32.7022 27.3343 32.6794 27.357C32.5656 27.9033 32.4632 28.3698 32.3494 28.8592C32.668 28.7454 32.9753 28.6657 33.2598 28.5292C33.9539 28.2105 34.5115 27.744 34.7619 26.9929C35.126 25.9232 34.7391 24.7738 33.7719 24.0228C33.1118 23.5107 32.3608 23.1351 31.5756 22.8506C30.3807 22.4182 29.1744 22.0427 27.9909 21.5989C26.5798 21.0868 25.237 20.4381 24.0307 19.5391C23.7462 19.3229 23.4731 19.0953 23.1773 18.8563C22.8017 19.0725 22.449 19.2774 22.0393 19.5277C22.2896 19.744 22.4831 19.9488 22.6879 20.1309ZM12.2527 19.0384C11.7406 19.0612 11.3309 19.4822 11.3195 19.9829C11.3081 20.5292 11.7292 20.9388 12.2868 20.9388C12.8444 20.9388 13.2541 20.5292 13.2427 19.9829C13.2427 19.4481 12.7761 19.0156 12.2527 19.0384Z" fill="#22345B"/>
</svg>
