<svg width="44" height="48" viewBox="0 0 44 48" fill="none" xmlns="http://www.w3.org/2000/svg">
<path d="M31.234 22.7686C31.1517 23.2371 31.0693 23.6823 30.987 24.1274C30.6105 26.0836 29.74 27.7821 28.3872 29.2346C28.3401 29.2814 28.3048 29.3283 28.246 29.4103C28.7754 30.4528 29.3047 31.5188 29.8459 32.5964C30.2341 32.7253 30.6341 32.8658 31.034 32.9947C32.281 33.4164 33.5397 33.8029 34.7632 34.2598C37.0336 35.1032 38.8452 36.5557 40.3157 38.4533C41.7509 40.3041 42.6802 42.3774 43.0802 44.685C43.2096 45.423 43.2567 46.1727 43.292 46.9223C43.3273 47.59 42.9273 47.9766 42.2685 48C42.1391 48 42.0215 48 41.8921 48C28.3989 48 14.9058 48 1.41265 48C1.27148 48 1.13031 48 0.989148 48C0.377428 47.9649 -0.0225428 47.59 0.000984907 46.9809C0.0362765 46.2312 0.071568 45.4815 0.20097 44.7436C0.671524 42.0846 1.80085 39.7301 3.60072 37.7153C5.13002 35.9934 6.97695 34.7518 9.17679 34.0372C10.4708 33.6155 11.7648 33.1821 13.0471 32.7487C13.1765 32.7019 13.3059 32.655 13.4471 32.6081C13.9764 31.5539 14.5058 30.5114 15.047 29.4337C14.2352 28.5786 13.5529 27.6298 13.0589 26.5521C12.7883 26.5521 12.5413 26.5521 12.2942 26.5521C10.612 26.4701 9.42383 25.2988 9.4003 23.6237C9.38854 23.2957 9.4003 22.9677 9.4003 22.6163C9.28266 22.5577 9.17679 22.5109 9.07091 22.4523C8.09451 21.9252 7.54161 21.1052 7.52985 19.9924C7.50632 17.8957 7.49456 15.8106 7.54161 13.7139C7.58867 10.9963 8.38861 8.48954 9.90615 6.22879C11.2825 4.17888 13.1059 2.5741 15.341 1.47301C17.4821 0.418771 19.7407 -0.0732066 22.117 0.00878958C24.7992 0.1025 27.2696 0.88732 29.493 2.37497C31.5752 3.7689 33.175 5.59625 34.3044 7.84528C35.2808 9.80148 35.7396 11.8631 35.7631 14.0301C35.7866 15.9629 35.7749 17.9074 35.7631 19.8402C35.7513 21.0115 35.2455 21.9135 34.175 22.464C33.7515 22.6866 33.2927 22.7686 32.8104 22.7686C32.2928 22.7569 31.7752 22.7686 31.234 22.7686ZM13.2118 15.5412C13.3882 18.5985 13.6588 21.6441 14.3176 24.6194C15.2822 24.6194 16.188 24.6194 17.0821 24.6194C17.1527 24.4788 17.1997 24.3734 17.2586 24.2562C17.7762 23.3426 18.5643 22.8389 19.6113 22.7803C20.3172 22.7452 21.023 22.7569 21.7288 22.7803C22.517 22.8037 23.1993 23.1083 23.7169 23.7057C24.4816 24.5842 24.6815 25.6033 24.211 26.6693C23.7404 27.7586 22.8581 28.3326 21.67 28.3795C20.9995 28.4029 20.3172 28.4146 19.6466 28.3795C18.5761 28.3326 17.7762 27.8289 17.2468 26.8918C17.1762 26.7747 17.1174 26.6458 17.0703 26.5521C16.4351 26.5521 15.8351 26.5521 15.2352 26.5521C15.2469 26.6107 15.2469 26.6458 15.2705 26.6693C16.7409 28.93 18.7879 30.2185 21.5406 30.2771C23.4463 30.3122 25.1168 29.6797 26.5167 28.4146C27.9754 27.1027 28.8342 25.451 29.1753 23.53C29.5753 21.2575 29.8341 18.9616 29.9988 16.654C30.0106 16.4197 29.9988 16.1972 29.9988 15.9043C25.9403 15.5178 22.3523 14.0419 19.3878 11.254C18.0114 11.3594 16.8233 11.7928 15.7528 12.6011C14.694 13.3859 14.0235 14.5104 13.2118 15.5412ZM1.8832 46.0907C7.92982 46.0907 13.8941 46.0907 19.8937 46.0907C19.8466 45.997 19.8113 45.9267 19.776 45.8681C19.2584 45.0716 18.7643 44.2516 18.2114 43.4785C16.3527 40.8546 14.8352 38.0433 13.6941 35.0329C13.6353 34.8806 13.5647 34.7283 13.4941 34.576C13.4118 34.5878 13.3647 34.5878 13.3177 34.5995C12.0707 35.0095 10.8237 35.4312 9.57676 35.8411C8.74153 36.1223 7.94158 36.4854 7.22399 36.9891C4.03599 39.1678 2.34199 42.2368 1.8832 46.0907ZM29.8106 34.5643C29.7635 34.5995 29.74 34.6229 29.7282 34.6463C29.6694 34.7869 29.5988 34.9275 29.5518 35.0797C28.4577 37.9496 27.0226 40.6438 25.2697 43.1739C24.6815 44.0173 24.1286 44.8959 23.564 45.751C23.4934 45.8564 23.4463 45.9618 23.3875 46.0789C24.2816 46.1609 41.0215 46.1258 41.3627 46.0438C41.3392 45.8095 41.3392 45.5753 41.3039 45.341C40.9862 43.3496 40.2687 41.5223 39.0805 39.8941C37.7041 38.0199 35.9631 36.626 33.7397 35.8646C32.6457 35.4897 31.5399 35.1266 30.4458 34.7635C30.2106 34.6932 29.9988 34.6229 29.8106 34.5643ZM13.2118 12.2614C13.2471 12.2731 13.2824 12.2965 13.3177 12.3082C13.3882 12.2262 13.4706 12.1559 13.5412 12.0739C15.0705 10.434 16.9762 9.57892 19.2114 9.36807C19.8231 9.3095 20.2936 9.48521 20.7407 9.9069C21.2818 10.4223 21.87 10.8909 22.4817 11.3243C24.3639 12.6479 26.4697 13.4562 28.7401 13.831C29.1753 13.9013 29.6224 13.9599 30.0812 14.0184C30.2106 11.9217 29.7165 10.0709 28.4107 8.46611C27.152 6.90819 25.5285 5.93594 23.5169 5.71338C22.5052 5.59625 21.4818 5.63139 20.4701 5.63139C20.1172 5.63139 19.7525 5.67824 19.3996 5.74852C16.4468 6.39278 14.4823 8.14984 13.5176 11.008C13.3647 11.418 13.3059 11.8514 13.2118 12.2614ZM33.8103 13.093C33.375 6.79105 27.8695 1.555 21.0465 1.88299C14.1647 2.21097 9.68263 7.88043 9.49441 13.0813C10.0826 13.0813 10.6708 13.0813 11.2472 13.0813C11.2708 13.0345 11.2708 13.0228 11.2708 13.011C11.2825 12.929 11.2825 12.8588 11.2943 12.7768C11.4119 10.7503 12.0707 8.93466 13.353 7.35331C14.9528 5.36197 17.0233 4.15546 19.5643 3.8509C20.5524 3.73376 21.5641 3.74547 22.5758 3.75719C24.658 3.78062 26.552 4.41316 28.2107 5.67824C30.1753 7.1776 31.3869 9.1338 31.8222 11.5585C31.9163 12.0622 31.9634 12.5659 32.034 13.093C32.6104 13.093 33.1868 13.093 33.8103 13.093ZM18.1879 39.9995C18.3879 40.3275 18.5761 40.6203 18.7526 40.9015C18.9408 41.1943 19.1172 41.4754 19.3172 41.7683C19.5055 42.0494 19.7172 42.3305 19.9172 42.6117C20.1172 42.9045 20.3289 43.1974 20.5171 43.5019C20.7054 43.7948 20.8701 44.0876 21.07 44.3687C21.2583 44.6382 21.3759 44.9661 21.6465 45.1887C22.7993 43.4551 23.9404 41.7449 25.0462 40.0815C23.8345 38.875 22.6699 37.727 21.4818 36.544C20.423 37.6568 19.329 38.8047 18.1879 39.9995ZM28.1401 33.4047C27.7284 32.573 27.3049 31.7413 26.8579 30.8628C25.505 32.2919 24.1875 33.6858 22.917 35.0212C23.9875 36.0871 25.0345 37.1179 26.0814 38.1722C26.8814 36.6728 27.5755 35.0797 28.1401 33.4047ZM15.1175 33.4164C15.7057 35.0915 16.388 36.6845 17.235 38.2776C18.2467 37.2234 19.2114 36.1925 20.1878 35.1735C19.6937 34.5409 16.4939 31.4133 16.1998 31.2611C15.8469 31.9756 15.494 32.6901 15.1175 33.4164ZM9.41207 15.0024C9.4003 15.1195 9.4003 15.2015 9.4003 15.2718C9.4003 16.7712 9.4003 18.2588 9.4003 19.7582C9.4003 19.8519 9.4003 19.9456 9.41207 20.0393C9.48265 20.4961 9.77674 20.8358 10.2355 20.871C10.7296 20.9061 11.2237 20.8827 11.7413 20.8827C11.5884 18.9031 11.4237 16.9586 11.2708 15.0024C10.6355 15.0024 10.0473 15.0024 9.41207 15.0024ZM31.5281 20.8827C32.0104 20.8827 32.4575 20.8944 32.8927 20.8827C33.4809 20.8593 33.8338 20.4961 33.8691 19.8987C33.8691 19.8402 33.8691 19.7699 33.8691 19.7113C33.8691 18.2588 33.8691 16.818 33.8691 15.3655C33.8691 15.2484 33.8456 15.1312 33.8456 15.0141C33.2103 15.0141 32.6104 15.0141 31.9987 15.0141C31.8457 16.9703 31.6928 18.9031 31.5281 20.8827ZM20.6818 26.5053C20.9995 26.517 21.3053 26.5287 21.6229 26.5053C22.1758 26.4701 22.5641 26.0836 22.5758 25.5916C22.5876 25.0996 22.1994 24.6779 21.6582 24.6545C21.0112 24.6311 20.376 24.6311 19.729 24.6545C19.3643 24.6662 19.0702 24.8654 18.9173 25.2051C18.6467 25.7907 19.0349 26.4233 19.7054 26.5053C20.0231 26.5287 20.3524 26.5053 20.6818 26.5053ZM23.0817 32.1162C21.9759 32.2099 20.8818 32.163 19.8466 31.9873C20.4113 32.5496 20.9759 33.1235 21.5524 33.7092C21.5759 33.6975 21.6229 33.6624 21.67 33.6155C22.1406 33.1118 22.6111 32.6199 23.0817 32.1162ZM11.2825 22.7803C11.2825 23.12 11.259 23.4246 11.2825 23.7174C11.3296 24.3265 11.7531 24.6545 12.3648 24.5959C12.2589 23.9868 12.1413 23.3894 12.0354 22.792C11.7648 22.7803 11.5531 22.7803 11.2825 22.7803ZM38.4217 42.1197C37.9865 41.2646 37.3983 40.5149 36.716 39.8355C36.4101 39.531 36.069 39.2381 35.7043 39.0156C35.3161 38.7696 34.8455 38.9101 34.5632 39.2498C34.2926 39.6012 34.2926 40.0581 34.5867 40.4095C34.7043 40.5501 34.8455 40.6789 34.9867 40.796C35.669 41.3817 36.2336 42.0611 36.6807 42.846C36.763 42.9982 36.8571 43.1388 36.963 43.2794C37.2218 43.6073 37.5747 43.7128 37.9629 43.5956C38.3629 43.4668 38.6099 43.1388 38.6217 42.6234C38.5864 42.518 38.5158 42.3071 38.4217 42.1197ZM31.0576 38.0433C31.0576 38.5353 31.5046 38.9687 31.9987 38.9687C32.4927 38.9687 32.928 38.5236 32.928 38.0316C32.928 37.5396 32.481 37.1062 31.9869 37.1062C31.4928 37.1179 31.0576 37.5513 31.0576 38.0433Z" fill="#22345B"/>
</svg>
