<svg width="16" height="14" viewBox="0 0 16 14" fill="none" xmlns="http://www.w3.org/2000/svg">
<path d="M4.65857 10.5872C4.6117 10.5715 4.57263 10.5558 4.53357 10.5479C3.91641 10.383 3.32658 10.1592 2.76801 9.84897C2.3188 9.60159 1.90866 9.29531 1.5532 8.92227C1.28368 8.63955 1.39305 8.22725 1.76413 8.11338C1.92819 8.06233 2.09225 8.02306 2.28365 7.97201C2.20943 7.92882 2.16256 7.90133 2.11568 7.87385C1.79538 7.69715 1.49852 7.48903 1.22899 7.23773C0.76807 6.80972 0.43605 6.29925 0.217307 5.71025C0.12356 5.45894 0.0649677 5.19978 0.010282 4.94062C-0.0600282 4.58722 0.240743 4.29272 0.592295 4.37518C0.732915 4.40659 0.873535 4.45764 1.01025 4.4969C1.03759 4.50476 1.06884 4.51261 1.11962 4.52439C1.104 4.47334 1.09618 4.43408 1.07665 4.40266C0.971189 4.1867 0.893066 3.95895 0.842286 3.72335C0.760258 3.35424 0.729009 2.98121 0.771976 2.60032C0.822756 2.13304 0.95947 1.70111 1.19774 1.30059C1.2368 1.23384 1.28368 1.17101 1.32665 1.10426C1.51414 0.821535 1.94772 0.813681 2.13912 1.13174C2.26412 1.33593 2.3813 1.54797 2.51411 1.74823C3.19377 2.7888 4.07656 3.60555 5.18199 4.17492C5.88509 4.53617 6.63507 4.77177 7.42411 4.86601C7.4866 4.87387 7.5452 4.88565 7.62722 4.89743C7.62722 4.8346 7.63504 4.7757 7.63113 4.72073C7.61941 4.45764 7.64285 4.19848 7.68191 3.93932C7.77175 3.35424 7.96706 2.80451 8.29127 2.30975C8.85765 1.4498 9.63107 0.892215 10.6545 0.711588C11.3576 0.589861 12.0333 0.684101 12.6739 0.994308C12.7599 1.03358 12.8263 1.02965 12.9083 0.990382C13.4864 0.703734 14.0645 0.417087 14.6426 0.130439C14.7168 0.0950992 14.7911 0.0558324 14.8731 0.0283457C15.0528 -0.0344812 15.2168 0.00871229 15.3496 0.142219C15.4785 0.2718 15.5332 0.432793 15.4707 0.617347C15.4473 0.680174 15.4238 0.743001 15.3926 0.805828C15.1856 1.22991 14.9785 1.65006 14.7676 2.07022C14.7442 2.11734 14.7247 2.16446 14.6934 2.22729C14.7481 2.22729 14.7871 2.23121 14.8262 2.22729C15.0293 2.21158 15.2324 2.19195 15.4317 2.17231C15.6895 2.14482 15.9043 2.28226 15.9785 2.51786C16.0059 2.60425 16.0098 2.69456 15.9746 2.78095C15.9473 2.8477 15.916 2.91445 15.8809 2.97728C15.6777 3.31105 15.4746 3.64482 15.2598 3.97466C15.1973 4.0689 15.1817 4.15921 15.2012 4.26916C15.2989 4.91706 15.3418 5.56889 15.3028 6.22464C15.2754 6.71548 15.2012 7.20239 15.0801 7.68144C14.8887 8.45107 14.5997 9.18143 14.2012 9.8686C13.7872 10.5833 13.2833 11.2272 12.7052 11.8123C12.0294 12.4916 11.2365 12.9942 10.3498 13.3437C9.67013 13.6107 8.96312 13.7953 8.24049 13.8817C7.85378 13.9288 7.46317 13.9484 7.07255 13.9798C6.6546 14.0152 6.24055 13.9995 5.82259 13.9681C5.38902 13.9366 4.95153 13.8856 4.51795 13.8267C3.92031 13.7403 3.33049 13.6107 2.75238 13.438C2.09225 13.2377 1.44383 13.0178 0.861817 12.6369C0.729009 12.5505 0.600107 12.4445 0.482923 12.3346C0.326678 12.1893 0.283711 12.0047 0.357927 11.8045C0.432143 11.6081 0.588388 11.5139 0.791507 11.4982C0.842286 11.4942 0.896972 11.4982 0.947752 11.4982C1.27196 11.4982 1.59226 11.506 1.91647 11.4942C2.56489 11.4707 3.20159 11.3686 3.79922 11.1055C4.10781 10.972 4.38905 10.8031 4.65857 10.5872ZM1.17821 5.5414C1.35008 5.96548 1.61961 6.3071 1.95163 6.59768C2.29927 6.90396 2.6977 7.12778 3.13518 7.28092C3.28752 7.33589 3.43986 7.38301 3.5922 7.43406C3.69376 7.46547 3.7836 7.51652 3.8461 7.60683C4.02187 7.84243 3.96719 8.15264 3.70548 8.31364C3.47892 8.45107 3.24065 8.56887 3.01019 8.69845C2.96331 8.72201 2.91644 8.74557 2.85003 8.78091C3.00237 8.87515 3.13127 8.96546 3.26799 9.03614C3.9125 9.37777 4.59607 9.60944 5.31089 9.73902C5.47104 9.76651 5.62729 9.79399 5.78744 9.82541C5.93978 9.85682 6.04915 9.95106 6.11165 10.0924C6.19758 10.2927 6.15852 10.4733 6.01399 10.6304C5.87728 10.7796 5.73275 10.9249 5.58041 11.0623C4.83434 11.7534 3.95937 12.1853 2.9555 12.3463C2.86956 12.3581 2.78754 12.3777 2.69379 12.3974C2.70941 12.417 2.71332 12.4288 2.72113 12.4288C3.85781 12.794 5.02574 12.9903 6.21711 13.0296C6.82256 13.0492 7.42411 13.0256 8.02565 12.9432C8.46313 12.8843 8.89671 12.8018 9.32639 12.684C10.6115 12.3228 11.6857 11.6317 12.5372 10.5911C12.9083 10.1356 13.2481 9.66049 13.5216 9.14217C13.7286 8.7495 13.9005 8.34112 14.0333 7.91704C14.1895 7.42228 14.2911 6.91574 14.334 6.39742C14.3614 6.06365 14.3809 5.72988 14.3575 5.39219C14.3301 4.98381 14.2911 4.57937 14.2286 4.17492C14.2012 3.98644 14.2325 3.80974 14.3419 3.65267C14.4043 3.56236 14.459 3.46812 14.5137 3.37388C14.5411 3.32675 14.5684 3.27963 14.6114 3.21288C14.5606 3.21681 14.5411 3.22073 14.5215 3.22073C14.3028 3.23644 14.084 3.26 13.8692 3.26393C13.5802 3.26393 13.3731 3.01655 13.4122 2.7299C13.4239 2.65529 13.4552 2.58069 13.4903 2.51001C13.627 2.22729 13.7677 1.94849 13.9044 1.66577C13.92 1.63828 13.9278 1.60294 13.9434 1.5519C13.8848 1.57938 13.8458 1.59509 13.8106 1.6108C13.5489 1.74038 13.2872 1.86603 13.0255 1.99561C12.8771 2.06629 12.7286 2.09378 12.5763 2.01524C12.5255 1.99168 12.4747 1.9642 12.4239 1.93278C11.8419 1.59902 11.2248 1.52441 10.5842 1.70111C9.73263 1.93671 9.18186 2.51393 8.84203 3.30712C8.59985 3.87256 8.53344 4.46549 8.62329 5.07413C8.63891 5.17622 8.65453 5.28224 8.66235 5.38433C8.67016 5.49821 8.63891 5.6003 8.57251 5.69454C8.46313 5.83983 8.3108 5.8948 8.13502 5.88695C8.02955 5.88302 7.928 5.87517 7.82253 5.86339C7.58426 5.83983 7.34598 5.82412 7.10771 5.78878C6.45929 5.68276 5.83041 5.50606 5.22496 5.24297C4.55701 4.9524 3.93984 4.57937 3.37345 4.11602C2.79535 3.64874 2.29536 3.10293 1.86569 2.4943C1.84225 2.46289 1.81491 2.43933 1.77585 2.38828C1.75632 2.51393 1.72898 2.60817 1.72116 2.70634C1.6782 3.29141 1.80319 3.82937 2.1235 4.3202C2.21724 4.46549 2.33052 4.59507 2.43599 4.72858C2.66254 5.0113 2.52973 5.42753 2.15474 5.50999C2.04537 5.53355 1.92819 5.54925 1.81491 5.54925C1.60789 5.55711 1.40086 5.54533 1.17821 5.5414Z" fill="#22345B"/>
</svg>
